<svg xmlns="http://www.w3.org/2000/svg" xmlns:xlink="http://www.w3.org/1999/xlink" width="730" height="503.939" viewBox="0 0 730 503.939">
  <defs>
    <linearGradient id="linear-gradient" y1="0.5" x2="1" y2="0.5" gradientUnits="objectBoundingBox">
      <stop offset="0" stop-color="gray" stop-opacity="0.251"/>
      <stop offset="0.54" stop-color="gray" stop-opacity="0.122"/>
      <stop offset="1" stop-color="gray" stop-opacity="0.102"/>
    </linearGradient>
  </defs>
  <g id="Group_14" data-name="Group 14" transform="translate(0 0.006)">
    <path id="Path_120" data-name="Path 120" d="M429.818,116.071c-46.792.063-91.831-13.2-134.911-27.937S209.079,56.9,163.157,49.905c-29.534-4.495-63.117-4.081-86.2,12.238-22.222,15.7-28.657,41.684-31.762,65.69-2.335,18.059-3.412,37.014,5.333,53.534,6.072,11.468,16.463,20.92,23.787,31.85,25.565,38.022,10.191,86.592-14.654,125.5-11.649,18.253-25.3,35.75-34.1,55.048s-12.419,41.183-3.437,60.232c8.9,18.879,29.008,32.582,50.585,41.941,43.818,19.042,94.836,23.124,144.482,24.695,109.9,3.487,220.006-3.624,329.822-10.736,40.638-2.629,81.458-5.277,121.258-12.9,22.1-4.225,44.851-10.5,60.52-24.244,19.887-17.452,23.956-45.947,9.484-66.429-24.269-34.354-88.263-40.833-105.665-78-9.6-20.463-1.321-43.931,10.867-63.656,26.141-42.322,71.136-80.232,71.894-127.568.519-32.507-22.88-64.219-57.828-78.347-36.632-14.8-86.579-10.992-112.244,16.588C518.9,103.752,471.132,116.027,429.818,116.071Z" transform="translate(-16.91 -47.46)" fill="#e54848" opacity="0.1"/>
    <path id="Path_121" data-name="Path 121" d="M1000.288,691.17s-7.693-5.077-15.318-1.465c0,0,2.347,4.52,12,4.094Z" transform="translate(-378.986 -287.191)" fill="#e54848"/>
    <path id="Path_122" data-name="Path 122" d="M1007.953,693.25s2.341,8.914-3.531,14.98c0,0-3.531-3.674,0-12.676Z" transform="translate(-385.675 -289.002)" fill="#e54848"/>
    <path id="Path_123" data-name="Path 123" d="M1015.71,676.248s-.57-7.581-17.69-5.064c0,0-.081,4.889,5.928,7.205S1012.712,678.752,1015.71,676.248Z" transform="translate(-383.867 -280.557)" fill="#e54848"/>
    <path id="Path_124" data-name="Path 124" d="M1025,679.5s7.236,2.322.782,18.379c0,0-4.776-1.064-5.634-7.455S1021.833,681.829,1025,679.5Z" transform="translate(-392.081 -283.859)" fill="#e54848"/>
    <path id="Path_125" data-name="Path 125" d="M1033.557,655.574s.983-12.476-16.513-11.2c0,0-1.252,11.268,13.427,14.2Z" transform="translate(-390.972 -270.687)" fill="#e54848"/>
    <path id="Path_126" data-name="Path 126" d="M1050.027,633.42s-2.4-14.141-19.887-9.928c0,0-.063,12.225,17.033,13.3Z" transform="translate(-395.88 -262.618)" fill="#e54848"/>
    <path id="Path_127" data-name="Path 127" d="M1062.656,610.333s-4.019-13.772-21.346-9.653c0,0,4.125,12.388,20.194,12.194Z" transform="translate(-400.058 -254.091)" fill="#e54848"/>
    <path id="Path_128" data-name="Path 128" d="M1075.887,587.379s-3.925-14.291-20.657-10.016c0,0,5.584,13.577,19.549,12.432Z" transform="translate(-405.265 -245.359)" fill="#e54848"/>
    <path id="Path_129" data-name="Path 129" d="M1085.367,563.795s-3.017-17.477-18.617-13.609c0,0,4.532,15.9,17.471,16.156Z" transform="translate(-409.573 -235.284)" fill="#e54848"/>
    <path id="Path_130" data-name="Path 130" d="M1092.645,538.157s-3.624-17.615-19.405-12.52c0,0,6.185,16.651,18.285,14.93Z" transform="translate(-412.001 -225.965)" fill="#e54848"/>
    <path id="Path_131" data-name="Path 131" d="M1098.273,511.68s-5.753-17.621-17.953-17.146c0,0,5.878,18.61,16.933,20.657Z" transform="translate(-414.649 -214.674)" fill="#e54848"/>
    <path id="Path_132" data-name="Path 132" d="M1102.408,486.5s-6.26-21.208-16.188-19.574c0,0,4.332,16.213,15.837,22.879Z" transform="translate(-416.856 -204.318)" fill="#e54848"/>
    <path id="Path_133" data-name="Path 133" d="M1104.469,459.019s-5.872-17.671-15.649-18.379c0,0,3.994,17.39,15.455,22.973Z" transform="translate(-417.828 -194.52)" fill="#e54848"/>
    <path id="Path_134" data-name="Path 134" d="M1107.481,432.831s-7.318-17.69-13.771-18.091c0,0,3.18,17.421,13.146,21Z" transform="translate(-419.657 -184.833)" fill="#e54848"/>
    <path id="Path_135" data-name="Path 135" d="M1110.447,406.688s-4.5-19.211-10.967-20.808c0,0,.883,15.718,10.316,22.247Z" transform="translate(-421.815 -174.039)" fill="#e54848"/>
    <path id="Path_136" data-name="Path 136" d="M1114.942,376.453s-4.732-15.318-9.972-17.653c0,0,1.033,18.059,8.764,21.4Z" transform="translate(-423.868 -163.91)" fill="#e54848"/>
    <path id="Path_137" data-name="Path 137" d="M1121.776,349.865l.952-27s-9.8,20.357-1.659,31.743Z" transform="translate(-428.681 -150.468)" fill="#e54848"/>
    <path id="Path_138" data-name="Path 138" d="M1133.933,310.65s7.055-19.718,8.764-20.82c0,0-13.834,12.8-12.482,29.252Z" transform="translate(-433.276 -138.114)" fill="#e54848"/>
    <path id="Path_139" data-name="Path 139" d="M1042.506,662.146s12.407-1.621,12.037,15.912c0,0-11.211,1.828-14.873-12.676Z" transform="translate(-399.445 -277.354)" fill="#e54848"/>
    <path id="Path_140" data-name="Path 140" d="M1061.141,639.06s14.335-.044,13.146,17.9c0,0-12.037,2.153-16.006-14.51Z" transform="translate(-406.405 -268.734)" fill="#e54848"/>
    <path id="Path_141" data-name="Path 141" d="M1074.942,617.715s13.014-6.1,21.34,9.653c0,0-12.019,5.083-22.491-7.1Z" transform="translate(-412.206 -260.315)" fill="#e54848"/>
    <path id="Path_142" data-name="Path 142" d="M1088.032,593.238s13.327-6.491,21.152,8.9c0,0-13.884,4.782-22.254-6.46Z" transform="translate(-417.121 -251.087)" fill="#e54848"/>
    <path id="Path_143" data-name="Path 143" d="M1095.868,569.641s12.826-12.25,23.061.138c0,0-13.1,10.084-23.649,2.591Z" transform="translate(-420.244 -240.748)" fill="#e54848"/>
    <path id="Path_144" data-name="Path 144" d="M1102.8,542.3s12.9-12.52,23.055.576c0,0-14.479,10.285-23.518,2.053Z" transform="translate(-422.885 -230.523)" fill="#e54848"/>
    <path id="Path_145" data-name="Path 145" d="M1106.93,513.563s9.941-15.649,21.646-12.157c0,0-10.316,16.57-21.534,15.831Z" transform="translate(-424.602 -217.058)" fill="#e54848"/>
    <path id="Path_146" data-name="Path 146" d="M1111.457,488.126s10.016-19.706,19.493-16.275c0,0-7.224,15.149-19.75,19.6Z" transform="translate(-426.199 -206.044)" fill="#e54848"/>
    <path id="Path_147" data-name="Path 147" d="M1112.122,460.129s10.3-15.512,19.944-13.615c0,0-8.419,15.731-20.945,18.1Z" transform="translate(-426.169 -196.657)" fill="#e54848"/>
    <path id="Path_148" data-name="Path 148" d="M1114,432.617s7.981-17.408,14.466-17.527c0,0-3.831,17.283-13.928,20.482Z" transform="translate(-427.246 -184.964)" fill="#e54848"/>
    <path id="Path_149" data-name="Path 149" d="M1116.5,407.965s8.87-17.628,15.537-17.665c0,0-4.538,15.074-15.243,19.211Z" transform="translate(-428.181 -175.692)" fill="#e54848"/>
    <path id="Path_150" data-name="Path 150" d="M1118.63,379.058s6.635-14.585,12.132-16.238c0,0-3.318,17.778-11.4,20.106Z" transform="translate(-428.978 -165.414)" fill="#e54848"/>
    <path id="Path_151" data-name="Path 151" d="M1124.1,351.652l14.829-22.592s-3.8,22.285-17,26.917Z" transform="translate(-430.212 -152.787)" fill="#e54848"/>
    <path id="Path_152" data-name="Path 152" d="M1137.36,317.745s17.233-11.894,17.859-13.815c0,0-8.764,16.657-25.039,19.6Z" transform="translate(-433.298 -143.388)" fill="#e54848"/>
    <path id="Path_153" data-name="Path 153" d="M1143.016,306.095s19.787-19.023,24.839-19c0,0-16.319.745-25.315,17.991Z" transform="translate(-437.921 -137.089)" fill="#e54848"/>
    <path id="Path_154" data-name="Path 154" d="M1118.94,363.977l.72.094c3.718-29.1,9.139-46.322,15.261-48.432l-.238-.689C1128.192,317.2,1122.734,334.161,1118.94,363.977Z" transform="translate(-429.094 -147.509)" fill="#444053"/>
    <path id="Path_155" data-name="Path 155" d="M1110.2,461.576l1.089.088c.232-2.717.407-5.5.526-8.269,1.039-24.088,2.648-46.21,4.764-62.792l-.626-.782c-2.122,16.62-4.188,39.405-5.227,63.53C1110.607,456.1,1110.432,458.872,1110.2,461.576Z" transform="translate(-425.825 -175.512)" fill="#444053"/>
    <path id="Path_156" data-name="Path 156" d="M976.648,635.008c.188-.081,19.361-8.645,39.261-29.064a157.886,157.886,0,0,0,28.7-40.689c9.2-18.735,14.811-41.759,16.689-64.125l-1.133.532c-4.225,50.2-27.08,84.507-45.252,103.192-19.706,20.238-38.667,28.714-38.854,28.8Z" transform="translate(-375.653 -217.145)" fill="#444053"/>
    <path id="Path_157" data-name="Path 157" d="M693.718,132.69H92.228a5.358,5.358,0,0,0-5.358,5.358V153.66H699.076V138.048A5.358,5.358,0,0,0,693.718,132.69Z" transform="translate(-43.077 -79.34)" fill="#3f3d56"/>
    <path id="Path_158" data-name="Path 158" d="M86.87,166.19V517.514a10.8,10.8,0,0,0,10.8,10.8h590.6a10.8,10.8,0,0,0,10.8-10.8V166.19Z" transform="translate(-43.077 -91.87)" fill="#fff"/>
    <circle id="Ellipse_7" data-name="Ellipse 7" cx="2.504" cy="2.504" r="2.504" transform="translate(50.986 61.175)" fill="#fa5959" opacity="0.8"/>
    <circle id="Ellipse_8" data-name="Ellipse 8" cx="2.504" cy="2.504" r="2.504" transform="translate(57.872 61.175)" fill="#fed253" opacity="0.8"/>
    <circle id="Ellipse_9" data-name="Ellipse 9" cx="2.504" cy="2.504" r="2.504" transform="translate(64.757 61.175)" fill="#8ccf4d" opacity="0.8"/>
    <rect id="Rectangle_61" data-name="Rectangle 61" width="492.019" height="216.35" transform="translate(100.701 132.899)" opacity="0.05"/>
    <rect id="Rectangle_62" data-name="Rectangle 62" width="484.507" height="211.581" transform="translate(104.457 134.539)" fill="#3f3d56"/>
    <path id="Path_159" data-name="Path 159" d="M365.98,349.38a48.2,48.2,0,1,0,48.2,48.2A48.2,48.2,0,0,0,365.98,349.38Zm8.645,49.358v22.823H357.586V398.738a14.116,14.116,0,1,1,17.039,0Z" transform="translate(-129.442 -160.387)" fill="#e54848"/>
    <path id="Path_160" data-name="Path 160" d="M365.98,349.38a48.2,48.2,0,1,0,48.2,48.2A48.2,48.2,0,0,0,365.98,349.38Zm8.645,49.358v22.823H357.586V398.738a14.116,14.116,0,1,1,17.039,0Z" transform="translate(-129.442 -160.387)" opacity="0.05"/>
    <path id="Path_161" data-name="Path 161" d="M357.752,327.38a61.972,61.972,0,1,0,61.972,61.972,61.972,61.972,0,0,0-61.972-61.972Zm11.111,63.462v29.34H346.954v-29.34a18.153,18.153,0,1,1,21.909,0Z" transform="translate(-121.214 -152.158)" fill="#e54848"/>
    <rect id="Rectangle_63" data-name="Rectangle 63" width="200.313" height="21.283" transform="translate(324.175 229.062)" fill="#fff"/>
    <rect id="Rectangle_64" data-name="Rectangle 64" width="43.192" height="21.283" transform="translate(481.296 267.872)" fill="#e54848"/>
    <path id="Path_162" data-name="Path 162" d="M560.857,427.262h-3.624l3.224-3.217a.319.319,0,0,0,0-.444.313.313,0,0,0-.444,0l-3.224,3.224v-3.631a.313.313,0,0,0-.313-.313.319.319,0,0,0-.313.313v3.631l-3.218-3.243a.313.313,0,0,0-.444,0,.319.319,0,0,0,0,.444l3.224,3.217h-3.631a.319.319,0,0,0-.313.313.313.313,0,0,0,.313.313h3.631l-3.224,3.224a.319.319,0,0,0,0,.444.326.326,0,0,0,.444,0l3.218-3.224v3.624a.313.313,0,0,0,.626,0v-3.624l3.224,3.224a.325.325,0,0,0,.444,0,.319.319,0,0,0,0-.444l-3.224-3.224h3.624a.3.3,0,1,0,0-.607Z" transform="translate(-216.963 -187.878)" fill="#e54848"/>
    <path id="Path_163" data-name="Path 163" d="M581.857,427.262h-3.624l3.224-3.217a.319.319,0,0,0,0-.444.313.313,0,0,0-.445,0l-3.224,3.224v-3.631a.313.313,0,0,0-.313-.313.319.319,0,0,0-.313.313v3.631l-3.218-3.243a.313.313,0,0,0-.444,0,.319.319,0,0,0,0,.444l3.224,3.217h-3.631a.319.319,0,0,0-.313.313.313.313,0,0,0,.313.313h3.631l-3.224,3.224a.319.319,0,0,0,0,.444.325.325,0,0,0,.444,0l3.218-3.224v3.624a.313.313,0,1,0,.626,0v-3.624l3.224,3.224a.325.325,0,0,0,.445,0,.319.319,0,0,0,0-.444l-3.224-3.224h3.624a.3.3,0,1,0,0-.607Z" transform="translate(-224.818 -187.878)" fill="#e54848"/>
    <path id="Path_164" data-name="Path 164" d="M602.857,427.262h-3.624l3.224-3.217a.319.319,0,0,0,0-.444.313.313,0,0,0-.444,0l-3.224,3.224v-3.631a.313.313,0,0,0-.313-.313.319.319,0,0,0-.313.313v3.631l-3.218-3.243a.313.313,0,0,0-.444,0,.319.319,0,0,0,0,.444l3.224,3.217h-3.631a.319.319,0,0,0-.313.313.313.313,0,0,0,.313.313h3.631l-3.224,3.224a.319.319,0,0,0,0,.444.325.325,0,0,0,.444,0l3.218-3.224v3.624a.313.313,0,0,0,.626,0v-3.624l3.224,3.224a.325.325,0,0,0,.444,0,.319.319,0,0,0,0-.444l-3.224-3.224h3.624a.3.3,0,1,0,0-.607Z" transform="translate(-232.672 -187.878)" fill="#e54848"/>
    <path id="Path_165" data-name="Path 165" d="M623.857,427.262h-3.624l3.224-3.217a.319.319,0,0,0,0-.444.313.313,0,0,0-.445,0l-3.224,3.224v-3.631a.313.313,0,0,0-.313-.313.319.319,0,0,0-.313.313v3.631l-3.218-3.243a.313.313,0,0,0-.444,0,.319.319,0,0,0,0,.444l3.224,3.217h-3.631a.319.319,0,0,0-.313.313.313.313,0,0,0,.313.313h3.631l-3.224,3.224a.319.319,0,0,0,0,.444.325.325,0,0,0,.444,0l3.218-3.224v3.624a.313.313,0,1,0,.626,0v-3.624l3.224,3.224a.326.326,0,0,0,.445,0,.319.319,0,0,0,0-.444l-3.224-3.224h3.624a.3.3,0,1,0,0-.607Z" transform="translate(-240.527 -187.878)" fill="#e54848"/>
    <path id="Path_166" data-name="Path 166" d="M644.857,427.262h-3.624l3.224-3.217a.319.319,0,0,0,0-.444.313.313,0,0,0-.444,0l-3.224,3.224v-3.631a.313.313,0,0,0-.313-.313.319.319,0,0,0-.313.313v3.631l-3.217-3.243a.313.313,0,0,0-.445,0,.319.319,0,0,0,0,.444l3.224,3.217h-3.631a.319.319,0,0,0-.313.313.313.313,0,0,0,.313.313h3.631l-3.224,3.224a.319.319,0,0,0,0,.444.325.325,0,0,0,.445,0l3.217-3.224v3.624a.313.313,0,0,0,.626,0v-3.624l3.224,3.224a.325.325,0,0,0,.444,0,.319.319,0,0,0,0-.444l-3.224-3.224h3.624a.3.3,0,1,0,0-.607Z" transform="translate(-248.381 -187.878)" fill="#e54848"/>
    <path id="Path_167" data-name="Path 167" d="M665.857,427.262h-3.624l3.224-3.217a.319.319,0,0,0,0-.444.313.313,0,0,0-.445,0l-3.224,3.224v-3.631a.313.313,0,0,0-.313-.313.319.319,0,0,0-.313.313v3.631l-3.218-3.243a.313.313,0,0,0-.444,0,.319.319,0,0,0,0,.444l3.224,3.217h-3.631a.319.319,0,0,0-.313.313.313.313,0,0,0,.313.313h3.631l-3.224,3.224a.319.319,0,0,0,0,.444.325.325,0,0,0,.444,0l3.218-3.224v3.624a.313.313,0,0,0,.626,0v-3.624l3.224,3.224a.325.325,0,0,0,.445,0,.319.319,0,0,0,0-.444l-3.224-3.224h3.624a.3.3,0,1,0,0-.607Z" transform="translate(-256.236 -187.878)" fill="#e54848"/>
    <path id="Path_168" data-name="Path 168" d="M686.857,427.262h-3.624l3.224-3.217a.319.319,0,0,0,0-.444.313.313,0,0,0-.445,0l-3.224,3.224v-3.631a.313.313,0,0,0-.313-.313.319.319,0,0,0-.313.313v3.631l-3.218-3.243a.313.313,0,0,0-.444,0,.319.319,0,0,0,0,.444l3.224,3.217h-3.631a.319.319,0,0,0-.313.313.313.313,0,0,0,.313.313h3.631l-3.224,3.224a.319.319,0,0,0,0,.444.325.325,0,0,0,.445,0l3.217-3.224v3.624a.313.313,0,0,0,.626,0v-3.624l3.224,3.224a.325.325,0,0,0,.444,0,.319.319,0,0,0,0-.444l-3.224-3.224h3.624a.3.3,0,1,0,0-.607Z" transform="translate(-264.09 -187.878)" fill="#e54848"/>
    <path id="Path_169" data-name="Path 169" d="M707.857,427.262h-3.624l3.224-3.217a.319.319,0,0,0,0-.444.313.313,0,0,0-.445,0l-3.224,3.224v-3.631a.313.313,0,0,0-.313-.313.319.319,0,0,0-.313.313v3.631l-3.218-3.243a.313.313,0,0,0-.444,0,.319.319,0,0,0,0,.444l3.224,3.217h-3.631a.319.319,0,0,0-.313.313.313.313,0,0,0,.313.313h3.631l-3.224,3.224a.319.319,0,0,0,0,.444.325.325,0,0,0,.444,0l3.218-3.224v3.624a.313.313,0,1,0,.626,0v-3.624l3.224,3.224a.326.326,0,0,0,.444,0,.319.319,0,0,0,0-.444l-3.224-3.224h3.624a.3.3,0,1,0,0-.607Z" transform="translate(-271.945 -187.878)" fill="#e54848"/>
    <path id="Path_170" data-name="Path 170" d="M728.857,427.262h-3.624l3.224-3.217a.319.319,0,0,0,0-.444.313.313,0,0,0-.445,0l-3.224,3.224v-3.631a.313.313,0,0,0-.313-.313.319.319,0,0,0-.313.313v3.631l-3.217-3.243a.313.313,0,0,0-.445,0,.319.319,0,0,0,0,.444l3.224,3.217h-3.631a.319.319,0,0,0-.313.313.313.313,0,0,0,.313.313h3.631l-3.224,3.224a.319.319,0,0,0,0,.444.326.326,0,0,0,.444,0l3.217-3.224v3.624a.313.313,0,0,0,.626,0v-3.624l3.224,3.224a.325.325,0,0,0,.444,0,.319.319,0,0,0,0-.444l-3.224-3.224h3.624a.3.3,0,1,0,0-.607Z" transform="translate(-279.799 -187.878)" fill="#e54848"/>
    <path id="Path_171" data-name="Path 171" d="M749.857,427.262h-3.624l3.224-3.217a.319.319,0,0,0,0-.444.313.313,0,0,0-.445,0l-3.224,3.224v-3.631a.313.313,0,0,0-.313-.313.319.319,0,0,0-.313.313v3.631l-3.218-3.243a.313.313,0,0,0-.444,0,.319.319,0,0,0,0,.444l3.224,3.217h-3.631a.319.319,0,0,0-.313.313.313.313,0,0,0,.313.313h3.631l-3.224,3.224a.319.319,0,0,0,0,.444.325.325,0,0,0,.444,0l3.218-3.224v3.624a.313.313,0,0,0,.626,0v-3.624l3.224,3.224a.325.325,0,0,0,.445,0,.319.319,0,0,0,0-.444l-3.224-3.224h3.624a.3.3,0,1,0,0-.607Z" transform="translate(-287.653 -187.878)" fill="#e54848"/>
    <path id="Path_172" data-name="Path 172" d="M770.857,427.262h-3.624l3.224-3.217a.319.319,0,0,0,0-.444.313.313,0,0,0-.444,0l-3.224,3.224v-3.631a.313.313,0,0,0-.313-.313.319.319,0,0,0-.313.313v3.631l-3.218-3.243a.313.313,0,0,0-.444,0,.319.319,0,0,0,0,.444l3.224,3.217h-3.631a.319.319,0,0,0-.313.313.313.313,0,0,0,.313.313h3.631l-3.224,3.224a.319.319,0,0,0,0,.444.325.325,0,0,0,.445,0l3.217-3.224v3.624a.313.313,0,0,0,.626,0v-3.624l3.224,3.224a.325.325,0,0,0,.444,0,.319.319,0,0,0,0-.444l-3.224-3.224h3.624a.3.3,0,1,0,0-.607Z" transform="translate(-295.508 -187.878)" fill="#e54848"/>
    <path id="Path_173" data-name="Path 173" d="M880.484,520.046a11.2,11.2,0,0,0-.282-2.247c-.563-2.116-1.834-4.676-3.925-5.315a32.951,32.951,0,0,1-6.222-2.629c-.376-6.71,1.164-13.577-.513-20.081-.626-2.379-1.659-4.657-1.934-7.092-.344-3.03.482-6.26-.726-9.052a8.934,8.934,0,0,0-5.29-4.57,28.186,28.186,0,0,0-7.055-1.252c-3-.244-12.732-1.4-16.125,1.29h0a3.543,3.543,0,0,0-.626.626h0a2.5,2.5,0,0,0-.2.326l-.031.05a2.541,2.541,0,0,0-.169.407h0a3.162,3.162,0,0,0-.106.469V472.1c.044.563.125,1.127.125,1.684a3.63,3.63,0,0,1-.075.826,5.787,5.787,0,0,1-1.039,2.028h0l-.113.163c-.069.1-.138.194-.2.294s-.113.175-.163.263-.1.144-.144.225a3.056,3.056,0,0,0-.163.319c0,.063-.069.119-.094.182a3.1,3.1,0,0,0-.188.526,3.494,3.494,0,0,0-.038,1.665,6.2,6.2,0,0,0,.858,1.972c.156.257.326.507.5.757l.438.595a13.517,13.517,0,0,0-.131,1.753,12.95,12.95,0,0,0,4.944,10.177,38.345,38.345,0,0,1-.08,7.945c-.056.551-.125,1.108-.2,1.659s-.131.914-.207,1.371a6.354,6.354,0,0,1-2.736-.207,12.9,12.9,0,0,0-1.252-.482c-1.822-.457-3.681,1.358-5.484.807a.736.736,0,0,1-.081.25,2.454,2.454,0,0,0-1.252-.369,4.566,4.566,0,0,1-2.717-1.559L825.4,502.7a2.636,2.636,0,0,1-.413-.463,3.252,3.252,0,0,1-.288-.77,8.872,8.872,0,0,0-2.31-3.311,1.564,1.564,0,0,0-.682-.495,1.052,1.052,0,0,0-.313,0,2.731,2.731,0,0,0-.207-.25,5.887,5.887,0,0,0-.52-.526c-1.139-1.052-1.252-1.953-2.241-3.13a30.085,30.085,0,0,1-2.341-3.537c-.081-.657-.194-1.333-.332-2.016a25.931,25.931,0,0,0-1.371-4.57l-1.252-2.773-.144.144c-.908-1.352-1.878-2.091-2.748-1.915-1.459.3-2.178,3.13-1.947,6.829l.5,3.756a1.157,1.157,0,0,0,.069.282,6.924,6.924,0,0,0-.138,1.352c0,.526.488.914.745,1.383a3.912,3.912,0,0,1,.626,2.135c-.031.269-.113.526-.125.789a3.035,3.035,0,0,0,.588,1.628l3.13,5.258.626,1.1.038.05a2.673,2.673,0,0,0,.839.964,11.466,11.466,0,0,0,1.033,3.8c.107.238.225.463.351.689a22.142,22.142,0,0,0,2.955,3.837l1.49,1.671c1.471,1.64,2.942,3.286,4.538,4.8a6.078,6.078,0,0,0,2.028,1.421,2.3,2.3,0,0,0,2.279-.332v2.329a1.308,1.308,0,0,1,.989,2.059,51.627,51.627,0,0,1-4.632,9.8,20.864,20.864,0,0,1,3.881,2.961,17.451,17.451,0,0,1,2.022,2.736c.056.463.1.92.125,1.377.463,7.462-2.423,14.867-5.008,21.978a17.125,17.125,0,0,0-1.5,6.222,12.207,12.207,0,0,0-1.4,1.008,9.285,9.285,0,0,1,.257,3.969,7.032,7.032,0,0,1-.52,2.5,17.619,17.619,0,0,1-.9,1.609c-1.621,2.861-1.978,6.26-2.3,9.527-.194,1.972.57,4.382-.326,6.147a25.146,25.146,0,0,0-3.13,9.628,9.651,9.651,0,0,1-.288,2.247c-.194.626-.538,1.158-.714,1.772a7.582,7.582,0,0,0-.125,2.5,23.963,23.963,0,0,1-1.314,8.833c-.783,2.235-1.646,4.626-1.033,6.923a9.758,9.758,0,0,0-2.648,5.815,9.175,9.175,0,0,1-.2,1.659,8.075,8.075,0,0,1-.751,1.6,13.971,13.971,0,0,0-1.7,7.512,20.894,20.894,0,0,0-3.374,8.814c-.557,3.124-.8,6.3-1.515,9.39-.952,4.081-2.673,8.207-3.011,12.388-2.028,1.3-2.9,3.806-3.293,6.178s-.451,4.864-1.446,7.055c-.513,1.139-1.252,2.16-1.74,3.324a15.263,15.263,0,0,0-.751,2.861,11.164,11.164,0,0,0-.194,4.695,7.078,7.078,0,0,1-1.834,1.4c.1-.388.181-.776.25-1.171-1.615,1.465-4.545.952-5.834,2.711a2.642,2.642,0,0,0,.626,3.624,5.005,5.005,0,0,0,1.3.557c3.13,1,6.347,2.009,9.565,1.477a2.854,2.854,0,0,0,1.083-.344,3.485,3.485,0,0,0,1.008-1.164q.723-1.146,1.44-2.291a29.75,29.75,0,0,0,3.512.82c.119,1,.207,2,.25,3,.626.125,1.465.163,1.759-.419a1.523,1.523,0,0,0,.106-.695c0-.445.063-1.033.1-1.634h.125a11.893,11.893,0,0,0,5.54-1.12c-.67-5.546,1.54-10.967,3.455-16.213,2.022-5.521,3.756-11.142,5.5-16.764,1.252-3.956,2.635-7.787,3.862-11.75q2.316-7.512,4.651-15.023c.676-2.2,1.358-4.382,2.135-6.573a102.39,102.39,0,0,1,5.8-12.914c.626-1.183,1.252-2.354,1.765-3.58.626-1.5,1.07-3.061,1.571-4.607A71.367,71.367,0,0,1,844.991,606c.044-.081.075-.156.119-.232.507,2.072,1.014,4.175,1.352,6.26a23.789,23.789,0,0,1,.106,7.737,25.519,25.519,0,0,0-.8,5.246c.094,2.448,1.4,4.67,2.047,7.03a26.755,26.755,0,0,1,.7,5.383c.175,2.817,1.7,5.978.626,8.588-3.349,8.269-1.728,17.609-3.637,26.291-.983,4.457-3.994,8.645-3.756,13.2q.25,4.851.851,9.678a9.212,9.212,0,0,0,.783,2.936,10.782,10.782,0,0,0,.857,1.4c-.275.106-.507.388-.707.983a3.862,3.862,0,0,0,1.39,4.382,6.083,6.083,0,0,0,1.809.626,9.526,9.526,0,0,0,2.617.363,6.1,6.1,0,0,0,.82-.1,29.844,29.844,0,0,0,2.961,1.064,6.447,6.447,0,0,0,.081.77.958.958,0,0,0,.326.707.978.978,0,0,0,.5.088h3.4v-.851a2.8,2.8,0,0,0,2.16-.7,3.342,3.342,0,0,0,.626-1.3q1.39-4.714,2.761-9.434a30.162,30.162,0,0,0,1.346-10.767c-1.208-11.537,1.446-23.111.582-34.679a83.068,83.068,0,0,1,1.064-20.808c.282-1.552.626-3.13.751-4.676.275-2.917-.063-5.865.144-8.764.069-1.014.207-2.022.332-3.03a145.491,145.491,0,0,0,1.346-18.873,59.451,59.451,0,0,0-.388-6.26,3.575,3.575,0,0,0,1.709-1,4.256,4.256,0,0,0,.407-2.673c0-2.216.933-4.307,1.684-6.4a76.017,76.017,0,0,0,2.366-8.8,30.729,30.729,0,0,0,1.052-7.355q0-.376-.038-.751a1.939,1.939,0,0,0,.576-.626,3.635,3.635,0,0,0,.3-1.158c.225-1.6.457-3.2.682-4.8q.25-1.721.494-3.437l1.991-13.89c.169-1.208.344-2.41.513-3.612l.52-3.593c.056-.426.119-.851.163-1.252C882.105,526.356,880.647,522.951,880.484,520.046Zm-16.607,52.006a11.441,11.441,0,0,1-1.252-5.44h-.069a2.793,2.793,0,0,0-.081-1.765c-.194-.457-.532-.845-.739-1.3a4.771,4.771,0,0,1-.338-1.753,47.787,47.787,0,0,1,.9-11.355c.081-.438.169-.883.25-1.321a3.269,3.269,0,0,0,.714-.557,5.071,5.071,0,0,0,.807-1.252c.708-1.421,1.352-2.867,1.947-4.338.194-.476.476-1.027.958-1.146-.1,3.662.275,7.4-1.214,10.7a6.771,6.771,0,0,0-.626,1.69c-.138.933.25,1.878.113,2.8-.069.482-.276.926-.357,1.4a1.371,1.371,0,0,0,.363,1.327,1.092,1.092,0,0,0,.269.138c-.038.25-.069.507-.094.751-.05.513-.075,1-.106,1.3a40.378,40.378,0,0,0-.169,4.607c0,1.659.063,3.318.038,5.008a3.4,3.4,0,0,1-.238,1.421,2.466,2.466,0,0,1-.476.626,16.265,16.265,0,0,0-.595-1.546Z" transform="translate(-304.359 -204.512)" fill="url(#linear-gradient)"/>
    <ellipse id="Ellipse_10" data-name="Ellipse 10" cx="3.531" cy="9.997" rx="3.531" ry="9.997" transform="matrix(0.98, -0.201, 0.201, 0.98, 502.636, 276.029)" fill="#fbbebe"/>
    <path id="Path_174" data-name="Path 174" d="M878.284,838.357a3.79,3.79,0,0,0,1.39,4.338,6.189,6.189,0,0,0,1.8.626,9.478,9.478,0,0,0,2.61.357c1.083-.05,2.122-.476,3.205-.626a.5.5,0,0,1,.369.05.532.532,0,0,1,.138.438,16.563,16.563,0,0,0,.138,1.84.945.945,0,0,0,.326.707.977.977,0,0,0,.5.088h3.393a33.085,33.085,0,0,0-.97-8.851,1.98,1.98,0,0,0-.25-.626,2.073,2.073,0,0,0-1.083-.626,6.052,6.052,0,0,0-2.623-.457,7.684,7.684,0,0,0-2.942,1.44,4.482,4.482,0,0,1-3.337.808C879.811,837.562,878.866,836.617,878.284,838.357Z" transform="translate(-339.01 -342.247)" fill="#3f3d56"/>
    <path id="Path_175" data-name="Path 175" d="M796.309,834.841a9.388,9.388,0,0,1-3.424,2.329l-.576.275a.4.4,0,0,0-.194.156.338.338,0,0,0,.063.282,4.05,4.05,0,0,0,4.595,1.671,2.434,2.434,0,0,0,1.008-.526,3.3,3.3,0,0,0,.776-2.016,4.126,4.126,0,0,0-.094-2.31C797.592,832.744,797.273,833.633,796.309,834.841Z" transform="translate(-306.851 -341.479)" fill="#fbbebe"/>
    <path id="Path_176" data-name="Path 176" d="M807.027,842.769a1.523,1.523,0,0,1-.106.695c-.294.576-1.114.545-1.753.419a42.13,42.13,0,0,0-.77-6.322c-1.214-.056-2.091,1.1-2.742,2.128l-1.678,2.66a3.469,3.469,0,0,1-1,1.164,2.966,2.966,0,0,1-1.083.344c-3.205.532-6.441-.476-9.534-1.477a5.049,5.049,0,0,1-1.3-.551,2.648,2.648,0,0,1-.626-3.618c1.3-1.753,4.206-1.252,5.822-2.7a14.577,14.577,0,0,1-.826,2.986c2.16-.326,3.612-2.3,5.352-3.624a3.294,3.294,0,0,1,1.527-.726,3.361,3.361,0,0,1,1.252.132,14.687,14.687,0,0,1,5.509,2.71,5.938,5.938,0,0,1,1.972,2.053C807.352,840,807.027,841.749,807.027,842.769Z" transform="translate(-304.56 -341.695)" fill="#3f3d56"/>
    <circle id="Ellipse_11" data-name="Ellipse 11" cx="12.933" cy="12.933" r="12.933" transform="translate(532.595 268.674)" fill="#fbbebe"/>
    <path id="Path_177" data-name="Path 177" d="M921.078,616.875a30.672,30.672,0,0,1-1.045,7.318,75.484,75.484,0,0,1-2.366,8.764c-.745,2.085-1.678,4.175-1.671,6.385a4.246,4.246,0,0,1-.413,2.667,3.9,3.9,0,0,1-1.828,1.045,2.285,2.285,0,0,0-1.54,1.371,9.669,9.669,0,0,1-1.3-2.867q-1.684-5.158-3.13-10.372a1.346,1.346,0,0,1,.088-1.252,1.553,1.553,0,0,1,.545-.307,5.633,5.633,0,0,0,1.734-1.114,2.536,2.536,0,0,0,.576-.745,3.375,3.375,0,0,0,.244-1.415c0-1.659,0-3.311-.044-4.97a41.541,41.541,0,0,1,.175-4.588c0-.3.056-.782.107-1.3.094-.983.282-2.122.814-2.5.795-.532,3.174.182,4.075.307,1.552.213,3.13.463,4.645.757A12.4,12.4,0,0,1,921.078,616.875Z" transform="translate(-350.073 -258.912)" fill="#3f3d56"/>
    <path id="Path_178" data-name="Path 178" d="M837.208,512.719c-.5,1-1.7,1.484-2.629,2.116l-3.174,2.178a2.116,2.116,0,0,1-1.571.538,2.065,2.065,0,0,1-1.171-1.1.218.218,0,0,0,0-.05l-.657-1.1-3.13-5.246a2.986,2.986,0,0,1-.582-1.615c0-.269.094-.52.119-.789a3.787,3.787,0,0,0-.626-2.128c-.25-.469-.751-.858-.739-1.383a5.008,5.008,0,0,1,.351-2.022,4.1,4.1,0,0,1,1.371-1.465c.294-.213.595-.413.908-.626a1.789,1.789,0,0,1,.545-.25c.52-.106,1.033.326,1.559.344,2.26,1.515,3.13,4.382,4.908,6.448,1,1.177,1.1,2.078,2.235,3.13.182.163.357.338.526.52a3.636,3.636,0,0,1,.563.814C836.219,511.573,837.464,512.206,837.208,512.719Z" transform="translate(-318.422 -216.634)" fill="#3f3d56"/>
    <path id="Path_179" data-name="Path 179" d="M877.647,512.313a11.653,11.653,0,0,1,1.39,6.3,3.937,3.937,0,0,1-.545,1.659c-.9,1.383-2.792,1.634-4.438,1.715a2.617,2.617,0,0,0-1.928.626,1.753,1.753,0,0,0,.119,2.141,4.832,4.832,0,0,0,1.916,1.252,16.959,16.959,0,0,0,8.244,1.828c1.315-.125,2.592-.507,3.9-.7a40.946,40.946,0,0,1,4.294-.238c1.7-.063,3.4-.232,5.1-.4l4.495-.444a1,1,0,0,0,.67-.244c.332-.388-.094-.958-.507-1.252-2.385-1.765-5.421-2.98-6.779-5.634a33.146,33.146,0,0,1-1.283-4.094,34.4,34.4,0,0,1-1.49-3.95,26.177,26.177,0,0,1-.207-3.643,4.889,4.889,0,0,0-1.252-3.33,5.219,5.219,0,0,0-3.405-1.1c-2.992-.131-6.178.582-8.3,2.692-.57.57-1.058,1.252-1.646,1.765s-1.39.664-1,1.34,1.152,1.1,1.565,1.69A14.4,14.4,0,0,1,877.647,512.313Z" transform="translate(-336.664 -217.768)" fill="#fbbebe"/>
    <path id="Path_180" data-name="Path 180" d="M895.045,537.475a71.118,71.118,0,0,1-3.831,14.1,53.12,53.12,0,0,0-2.253,6.322c-.482,1.941-.388,4.019-.833,5.966-.551,2.423-1.1,4.851-1.546,7.293a47.818,47.818,0,0,0-.889,11.33,4.737,4.737,0,0,0,.338,1.746c.207.451.538.839.732,1.3a3.13,3.13,0,0,1-.175,2.5,7.249,7.249,0,0,1-1.29,1.953c-5.834,1.74-12.075,1.171-18.153,1.54-5.6.338-11.268,1.49-16.789.532-.626-2.5.419-5.127,1.315-7.568,2.6-7.092,5.471-14.479,5.008-21.909a22.682,22.682,0,0,0-.294-2.585c-.908-5.264.081-10.717,1.665-15.818a27.148,27.148,0,0,0,.714-9.878,18.037,18.037,0,0,1-.044-3.236,5.69,5.69,0,0,1,1.177-3.023c0-.044.056-.088.088-.131a.859.859,0,0,1,.469,0h0a.4.4,0,0,0,.313,0l.069-.044a.157.157,0,0,1,.181,0c.144.088.225.388.538.444a12.484,12.484,0,0,0,1.4.131,7.515,7.515,0,0,1,1.665.238h.075a4.888,4.888,0,0,0,2.429-.207,6.455,6.455,0,0,0,1.49-.576c.138-.15,1-.288,1.177-.394.57-.344.444-1.959.563-2.623a7.21,7.21,0,0,1,.469-1.94,3.305,3.305,0,0,1,2.679-1.559,14.267,14.267,0,0,1,3.211.288c2.335.332,4.726.275,7.017.814,1.152.269,2.41.676,3.468.15.288.069.332.319.332.626a4.005,4.005,0,0,1-.175.858c-.4,1.728.958,3.318,2.21,4.57a7.086,7.086,0,0,0,1.847,1.471c.626.288,1.252.407,1.878.72a3.419,3.419,0,0,1,1.252,1.146,4.783,4.783,0,0,1,.714,1.822,10.894,10.894,0,0,1-.207,3.624Z" transform="translate(-328.566 -224.72)" fill="#3f3d56"/>
    <path id="Path_181" data-name="Path 181" d="M898.565,541.334a71.121,71.121,0,0,1-3.831,14.1,53.117,53.117,0,0,0-2.254,6.322c-.482,1.941-.388,4.019-.833,5.966-.551,2.423-1.1,4.851-1.546,7.293-.132.075-.269.144-.407.207a9.607,9.607,0,0,1-2.454.789,15.024,15.024,0,0,1-4.582-.15l-8.933-1.2c-3.568-.482-7.368-1.064-10.016-3.48a21.371,21.371,0,0,1-3.493-4.77,22.667,22.667,0,0,0-.294-2.585c-.908-5.264.081-10.717,1.665-15.818a27.149,27.149,0,0,0,.714-9.878,18.036,18.036,0,0,1-.044-3.236,5.69,5.69,0,0,1,1.177-3.023,4.458,4.458,0,0,1,.557-.125h0a2.792,2.792,0,0,1,.382-.05h.181a2.738,2.738,0,0,1,.626.075,11.327,11.327,0,0,1,1.252.482h.075a4.794,4.794,0,0,0,1.665.238c.826,0,1.678-.131,2.5-.188a4.62,4.62,0,0,1,2.967.532,17.778,17.778,0,0,1,1.653,1.509,7.1,7.1,0,0,0,2.084,1.133,22.153,22.153,0,0,0,16.664-.351,3.261,3.261,0,0,1,1.671-.426,3.13,3.13,0,0,1,1.2.513c.375.219.745.432,1.127.626a4.782,4.782,0,0,1,.714,1.822A10.89,10.89,0,0,1,898.565,541.334Z" transform="translate(-332.086 -228.579)" opacity="0.1"/>
    <path id="Path_182" data-name="Path 182" d="M900.787,536.472a33.408,33.408,0,0,1-7.136-3.13,3.2,3.2,0,0,0-1.2-.513,3.36,3.36,0,0,0-1.678.426,22.141,22.141,0,0,1-16.657.351,7.241,7.241,0,0,1-2.085-1.133,18.723,18.723,0,0,0-1.653-1.508c-2.06-1.333-4.908.232-7.211-.626a12.75,12.75,0,0,0-1.252-.482c-1.822-.457-3.674,1.358-5.465.808a30.452,30.452,0,0,0-1.471,5.584,60.872,60.872,0,0,0-.407,6.585c0,1.321-.063,2.642,0,3.962a1.3,1.3,0,0,1,.989,2.053,51.319,51.319,0,0,1-4.62,9.772,21.233,21.233,0,0,1,3.869,2.955c2.191,2.316,3.268,5.565,5.634,7.706,2.667,2.41,6.466,3,10.016,3.474l8.933,1.2a15.271,15.271,0,0,0,4.588.157,9.659,9.659,0,0,0,2.448-.8,4.381,4.381,0,0,0,1.365-.9,5.006,5.006,0,0,0,.807-1.252c.707-1.415,1.352-2.861,1.947-4.326.207-.52.52-1.127,1.083-1.171,3.318-2.992,6.448-6.059,9.765-9.052a21.642,21.642,0,0,0,3.562-3.756c1.646-2.435.15-5.884,0-8.826a11.143,11.143,0,0,0-.282-2.235C904.136,539.658,902.871,537.1,900.787,536.472Z" transform="translate(-328.856 -227.861)" fill="#e54848"/>
    <path id="Path_183" data-name="Path 183" d="M840.562,518.9c-.5,1-1.7,1.484-2.629,2.116l-3.174,2.178a2.116,2.116,0,0,1-1.571.538,2.065,2.065,0,0,1-1.171-1.1v-.451a4.2,4.2,0,0,1,.2-1.5,4.663,4.663,0,0,1,1.4-1.8,11.478,11.478,0,0,1,4.113-2.5,1.408,1.408,0,0,1,.751-.075.989.989,0,0,1,.275.119,3.633,3.633,0,0,1,.563.814C839.573,517.754,840.818,518.386,840.562,518.9Z" transform="translate(-321.776 -222.814)" opacity="0.1"/>
    <path id="Path_184" data-name="Path 184" d="M848.5,525.739a4.56,4.56,0,0,1-2.711-1.552l-2.372-2.2a2.214,2.214,0,0,1-.413-.463,3.245,3.245,0,0,1-.288-.77,8.832,8.832,0,0,0-2.3-3.305,1.5,1.5,0,0,0-.682-.488,1.371,1.371,0,0,0-.757.075,11.447,11.447,0,0,0-4.113,2.5,4.676,4.676,0,0,0-1.4,1.8,4.161,4.161,0,0,0-.2,1.5,11.493,11.493,0,0,0,1.089,4.783c.106.232.225.463.351.689a21.674,21.674,0,0,0,2.942,3.825l1.49,1.665c1.465,1.64,2.93,3.28,4.52,4.789A5.971,5.971,0,0,0,845.676,540a2.266,2.266,0,0,0,2.329-.376,3.368,3.368,0,0,0,.664-1.189,23.413,23.413,0,0,0,1.934-7.806,29.472,29.472,0,0,0-.138-3.236C850.371,526.252,849.564,525.808,848.5,525.739Z" transform="translate(-322.24 -223.056)" fill="#e54848"/>
    <path id="Path_185" data-name="Path 185" d="M873.312,653.765a144.665,144.665,0,0,1-1.34,18.823c-.125,1.008-.263,2.016-.332,3.023-.207,2.923.131,5.859-.144,8.764-.144,1.571-.469,3.13-.745,4.664a82.923,82.923,0,0,0-1.064,20.751c.864,11.537-1.784,23.08-.582,34.585a27.961,27.961,0,0,1-.369,6.692,28.361,28.361,0,0,1-.97,4.044q-1.371,4.7-2.754,9.39a3.256,3.256,0,0,1-.626,1.3,2.967,2.967,0,0,1-2.347.695c-3.612-.113-7.011-1.671-10.291-3.193a3.587,3.587,0,0,1-1.033-.626c-.682-.707-.626-1.822-.926-2.754a26.217,26.217,0,0,0-1.577-2.767,9.032,9.032,0,0,1-.682-2.848q-.626-4.808-.851-9.653c-.238-4.545,2.767-8.726,3.756-13.146,1.878-8.689.288-18,3.624-26.247,1.052-2.6-.476-5.759-.626-8.563a27.148,27.148,0,0,0-.7-5.371c-.626-2.354-1.947-4.57-2.041-7.011a25.758,25.758,0,0,1,.8-5.227,23.493,23.493,0,0,0-.106-7.718c-.332-2.1-.839-4.207-1.346-6.26l-.113.232a70.725,70.725,0,0,0-3.925,9.233c-.5,1.534-.939,3.1-1.565,4.588-.513,1.252-1.146,2.4-1.765,3.574a102.664,102.664,0,0,0-5.79,12.864c-.776,2.166-1.458,4.382-2.135,6.554L830.1,717.182c-1.252,3.95-2.623,7.768-3.85,11.712-1.734,5.634-3.468,11.217-5.484,16.726-1.878,5.227-4.113,10.642-3.443,16.163a11.893,11.893,0,0,1-5.527,1.12,32.362,32.362,0,0,1-9.39-2.279,7.3,7.3,0,0,1-3.243-1.928c-1.39-1.7-1.045-4.182-.626-6.341a15.323,15.323,0,0,1,.751-2.854c.476-1.152,1.252-2.172,1.74-3.311.983-2.185,1.045-4.657,1.433-7.03s1.252-4.876,3.28-6.166c.344-4.169,2.059-8.282,3-12.357.714-3.086.952-6.26,1.515-9.39a20.624,20.624,0,0,1,3.362-8.795,13.941,13.941,0,0,1,1.7-7.512,8.212,8.212,0,0,0,.745-1.6,9.174,9.174,0,0,0,.2-1.653,9.772,9.772,0,0,1,2.642-5.8c-.626-2.285.244-4.67,1.027-6.886a23.924,23.924,0,0,0,1.315-8.807,7.716,7.716,0,0,1,.119-2.5c.175-.626.519-1.158.72-1.759a10.013,10.013,0,0,0,.282-2.247,25.992,25.992,0,0,1,3.13-9.6c.9-1.765.138-4.163.325-6.128.326-3.268.682-6.648,2.3-9.5.3-.538.626-1.052.9-1.609a6.966,6.966,0,0,0,.52-2.5,9.219,9.219,0,0,0-.257-3.956c3.349-2.786,7.919-3.568,12.275-3.756s8.764.207,13.027-.72c1.252-.282,2.5-.67,3.825-.858,3-.438,6.041.244,9,.92a10.722,10.722,0,0,0,1.252,5.427,58.261,58.261,0,0,1,4.638,22.36Z" transform="translate(-309.118 -263.445)" fill="#33313f"/>
    <path id="Path_186" data-name="Path 186" d="M889.491,673.29,882.3,689.465c-.332-2.1-.839-4.206-1.346-6.26l-.113.232V683.1l3.919-8.62Z" transform="translate(-340.039 -281.537)" opacity="0.1"/>
    <path id="Path_187" data-name="Path 187" d="M923.166,616.875a2.7,2.7,0,0,1-1.427.532,6.945,6.945,0,0,1-2.341-.319l-5.634-1.408a2.763,2.763,0,0,1-.513-.182c.094-.983.282-2.122.814-2.5.795-.532,3.174.182,4.075.307,1.552.213,3.13.463,4.645.757A12.4,12.4,0,0,1,923.166,616.875Z" transform="translate(-352.161 -258.912)" opacity="0.1"/>
    <path id="Path_188" data-name="Path 188" d="M927.58,558.616c.119.52.288,1.033.388,1.559a11.9,11.9,0,0,1-.131,3.875l-.513,3.581-.513,3.6-1.984,13.853-.488,3.43-.689,4.789a3.446,3.446,0,0,1-.3,1.152,2.4,2.4,0,0,1-1.959,1.158,7.1,7.1,0,0,1-2.341-.319l-5.634-1.415a1.764,1.764,0,0,1-.689-.282,1.358,1.358,0,0,1-.363-1.321c.081-.476.288-.92.357-1.4.138-.926-.25-1.878-.113-2.8a6.965,6.965,0,0,1,.626-1.684c1.878-4.15.789-9,1.427-13.5A20.469,20.469,0,0,1,919,563.229a27.747,27.747,0,0,1,4.795-4.707,9.652,9.652,0,0,1,2.7-1.878C927.63,556.406,927.392,557.827,927.58,558.616Z" transform="translate(-351.812 -237.898)" fill="#e54848"/>
    <path id="Path_189" data-name="Path 189" d="M865.1,471.771c-.413,1.315.232,2.761-.063,4.1-.319,1.477-1.709,2.5-2.1,3.987-.626,2.26,1.29,4.319,2.692,6.2,5.2,6.973,4.513,16.626,2.736,25.133a129.78,129.78,0,0,1-5.915,20.031,15.347,15.347,0,0,1-3.186,5.59c2.879-.826,5.941-1.659,8.826-.858,3.656,1.014,6.811,4.563,10.516,3.756,2.229-.495,3.793-2.473,5.8-3.568,3.756-2.022,8.282-.751,12.47-.1a4.895,4.895,0,0,0,2.723-.138,4.526,4.526,0,0,0,1.653-1.521,15.436,15.436,0,0,0,3.218-8.326,10.679,10.679,0,0,0-3.074-8.219,17.583,17.583,0,0,1-2.635-2.5,7.774,7.774,0,0,1-1.033-3.793c-.495-6.886,1.183-13.915-.545-20.576-.626-2.372-1.646-4.645-1.922-7.074-.344-3.023.476-6.26-.726-9.027a8.853,8.853,0,0,0-5.277-4.557,28.911,28.911,0,0,0-7.036-1.252C878.784,468.767,866.534,467.3,865.1,471.771Z" transform="translate(-331.968 -204.976)" fill="#33313f"/>
    <g id="Group_13" data-name="Group 13" transform="translate(527.293 265.362)" opacity="0.1">
      <path id="Path_190" data-name="Path 190" d="M870.284,516.75A129.515,129.515,0,0,1,864.4,536.7c.432-.858.8-1.759,1.139-2.654a129.092,129.092,0,0,0,5.915-20.031c1.784-8.513,2.466-18.153-2.729-25.133-1.252-1.665-2.861-3.468-2.8-5.421a6.672,6.672,0,0,0-1.064,1.966c-.626,2.26,1.29,4.319,2.692,6.2C872.744,498.59,872.062,508.242,870.284,516.75Z" transform="translate(-861.182 -475.898)"/>
      <path id="Path_191" data-name="Path 191" d="M868.512,476.281a6.091,6.091,0,0,0,1.1-2.11,10.723,10.723,0,0,0-.075-2.792,3.011,3.011,0,0,0-1.039,1.433C868.13,473.922,868.556,475.123,868.512,476.281Z" transform="translate(-862.659 -471.38)"/>
      <path id="Path_192" data-name="Path 192" d="M902.421,567.977a4.507,4.507,0,0,1-1.653,1.515,4.783,4.783,0,0,1-2.723.138c-4.188-.626-8.764-1.916-12.469.106-2.009,1.089-3.568,3.067-5.8,3.568-3.7.826-6.854-2.723-10.51-3.756-2.592-.72-5.321-.125-7.931.626a10.937,10.937,0,0,1-2.072,2.992c2.879-.826,5.94-1.659,8.826-.858,3.656,1.014,6.811,4.563,10.516,3.756,2.228-.495,3.793-2.473,5.8-3.568,3.756-2.022,8.282-.751,12.469-.1a4.895,4.895,0,0,0,2.723-.138,4.525,4.525,0,0,0,1.653-1.521,16.827,16.827,0,0,0,2.591-4.958,18.193,18.193,0,0,1-1.415,2.2Z" transform="translate(-859.26 -506.688)"/>
    </g>
  </g>
</svg>
