<svg xmlns="http://www.w3.org/2000/svg" xmlns:xlink="http://www.w3.org/1999/xlink" width="747" height="530.806" viewBox="0 0 747 530.806">
  <defs>
    <style>
      .cls-1, .cls-4 {
        fill: #fff;
      }

      .cls-1 {
        opacity: 0.79;
      }

      .cls-2, .cls-32 {
        fill: #7bb996;
      }

      .cls-2, .cls-26, .cls-31 {
        opacity: 0.1;
      }

      .cls-3 {
        fill: none;
        stroke: #fff;
        stroke-miterlimit: 10;
        opacity: 0.03;
      }

      .cls-5 {
        fill: #7e4747;
      }

      .cls-6 {
        fill: url(#linear-gradient);
      }

      .cls-7 {
        fill: #e27474;
      }

      .cls-8 {
        fill: url(#linear-gradient-2);
      }

      .cls-9 {
        fill: #d57a79;
      }

      .cls-10 {
        fill: url(#linear-gradient-4);
      }

      .cls-11 {
        fill: #7cfcff;
      }

      .cls-12 {
        fill: url(#linear-gradient-5);
      }

      .cls-13 {
        fill: url(#linear-gradient-6);
      }

      .cls-14 {
        fill: #cc0808;
      }

      .cls-15 {
        fill: #ff4b4b;
      }

      .cls-16 {
        fill: #ff69b4;
      }

      .cls-17 {
        fill: url(#linear-gradient-23);
      }

      .cls-18 {
        fill: #ee8e9e;
      }

      .cls-19 {
        fill: #65617d;
      }

      .cls-20 {
        fill: #3f3d56;
      }

      .cls-21, .cls-25 {
        opacity: 0.05;
      }

      .cls-22 {
        fill: #e8eaf2;
      }

      .cls-23 {
        fill: #303d5c;
      }

      .cls-24, .cls-25 {
        fill: #c64242;
      }

      .cls-27 {
        fill: #e54848;
      }

      .cls-28 {
        fill: url(#linear-gradient-24);
      }

      .cls-29 {
        fill: #444053;
      }

      .cls-30 {
        fill: #efb7b9;
      }

      .cls-32 {
        opacity: 0.2;
      }
    </style>
    <linearGradient id="linear-gradient" x1="0.5" y1="1" x2="0.5" gradientUnits="objectBoundingBox">
      <stop offset="0" stop-color="gray" stop-opacity="0.251"/>
      <stop offset="0.54" stop-color="gray" stop-opacity="0.122"/>
      <stop offset="1" stop-color="gray" stop-opacity="0.102"/>
    </linearGradient>
    <linearGradient id="linear-gradient-2" y1="1" y2="0" xlink:href="#linear-gradient"/>
    <linearGradient id="linear-gradient-4" y1="1" y2="0" xlink:href="#linear-gradient"/>
    <linearGradient id="linear-gradient-5" y1="1" y2="0" xlink:href="#linear-gradient"/>
    <linearGradient id="linear-gradient-6" y1="1" y2="0" xlink:href="#linear-gradient"/>
    <linearGradient id="linear-gradient-23" x1="-1.293" y1="1" x2="-1.293" y2="0" xlink:href="#linear-gradient"/>
    <linearGradient id="linear-gradient-24" x1="0.419" y1="1" x2="0.419" y2="0" xlink:href="#linear-gradient"/>
  </defs>
  <g id="undraw_scrum_board_cesn" transform="translate(0 0)">
    <path id="Path_58" data-name="Path 58" class="cls-1" d="M758.09,372.45a203.041,203.041,0,0,1-4.484,42.677q-1.509,7.046-3.507,13.813-2.473,8.435-5.657,16.357-1.617,4.034-3.418,7.928a120.946,120.946,0,0,1-7.719,42.854c-9.1,24.1-25.673,43.761-46.412,55.247a86.888,86.888,0,0,1-42.271,11.01H152.9c-26.282,0-50.643-9.342-70.614-25.261a130.18,130.18,0,0,1-16.217-15.443,137.936,137.936,0,0,1-17.828-25.553,152.038,152.038,0,0,1-18.132-72.7c-12.019-24.335-19.014-53.509-19.014-84.9,0-39.569,11.137-75.656,29.434-102.985a140.836,140.836,0,0,1,12.5-16.065A122.29,122.29,0,0,1,67.32,205.9,108.777,108.777,0,0,1,80,197.113c1.833-1.078,3.672-2.093,5.543-3.038q2.461-1.268,4.985-2.366,3.025-1.332,6.127-2.442t6.12-1.947a86.571,86.571,0,0,1,9.038-2.01q3.805-.656,7.611-.97,3.025-.247,6.1-.285h1.11c2.258,0,4.5.108,6.729.279.235-.545.488-1.091.723-1.636.888-1.953,1.808-3.894,2.733-5.809a.222.222,0,0,0,0-.051c.159-.33.317-.634.482-.983.748-1.56,1.528-3.108,2.328-4.643.368-.71.729-1.414,1.1-2.118.082-.165.165-.323.26-.488.381-.729.767-1.452,1.161-2.175q2.936-5.41,6.108-10.655c.184-.3.355-.6.539-.888.33-.539.634-1.078,1-1.611.875-1.421,1.776-2.835,2.683-4.237.634-.989,1.268-1.979,1.953-2.955q2.473-3.71,5.074-7.325t5.4-7.23c.254-.33.507-.634.774-.983l2.708-3.406h0l.374-.463h0l.983-1.2c1.452-1.769,2.943-3.52,4.44-5.251A255.455,255.455,0,0,1,198.49,95.777c.336-.311.679-.634,1.015-.9,1.611-1.4,3.247-2.784,4.884-4.141a255.94,255.94,0,0,1,28.166-20.3c.672-.431,1.357-.85,2.049-1.268a256.143,256.143,0,0,1,26.948-14.333q7.611-3.5,15.38-6.482c3.438-1.306,6.888-2.537,10.382-3.7q8.105-2.676,16.414-4.852a256.823,256.823,0,0,1,49.622-7.814q7.611-.457,15.393-.457a257.761,257.761,0,0,1,74.2,10.839,2.588,2.588,0,0,0,2.3,1.383h2.137c.926.292,1.846.6,2.772.9q7.757,2.575,15.291,5.638l1.268.52a257.208,257.208,0,0,1,66.314,39.867q2.226,1.833,4.389,3.723,2.626-1.947,5.34-3.723a97.671,97.671,0,0,1,22.122-10.9A87.948,87.948,0,0,1,614.5,77.536c21.088,5.169,40.178,17.993,55.6,36.227a148.756,148.756,0,0,1,16.674,24.456c.349.634.7,1.268,1.034,1.9a172.216,172.216,0,0,1,10.617,24.449c.108.3.216.634.311.913a189.372,189.372,0,0,1,6.533,24.437c.076.419.165.843.241,1.268a201.6,201.6,0,0,1,3.12,24.449,5.29,5.29,0,0,0,.051.894q.4,6.38.406,12.9,0,5.835-.323,11.556c0,.425-.051.856-.082,1.268-.057,1.11-.14,2.22-.222,3.323a130.279,130.279,0,0,1,13.56,14.765q2.771,3.507,5.365,7.262A158.481,158.481,0,0,1,741.2,292.056C751.925,315.49,758.09,343,758.09,372.45Z" transform="translate(-11.09 -31.53)"/>
    <path id="Path_59" data-name="Path 59" class="cls-2" d="M736.147,808.655c0,9.418-29.124,18.012-76.982,24.506H210.136c-47.852-6.494-76.976-15.088-76.976-24.506,0-7.173,16.9-13.87,46.108-19.528h0l.824-.159c8.245-1.579,17.46-3.076,27.532-4.478l.767-.108h0q11.987-1.655,25.5-3.127l.85-.089q5.213-.571,10.642-1.1h0l1.4-.133c26.352-2.537,56.306-4.592,88.791-5.968h.038q6.824-.285,13.794-.533,7.75-.285,15.691-.507c4.04-.12,8.131-.222,12.234-.317h.1c18.513-.438,37.641-.666,57.2-.666,48.366,0,94.081,1.389,134.588,3.856h.114c6.228.38,12.342.78,18.3,1.211l5.074.374q10.09.761,19.661,1.611h0C687.413,785.671,736.147,796.472,736.147,808.655Z" transform="translate(-55.74 -302.355)"/>
    <path id="Path_60" data-name="Path 60" class="cls-3" d="M306.192,135.347v19.236a2.6,2.6,0,0,1-2.6,2.607H268.38a255.445,255.445,0,0,1,24.291-24.449H303.6a2.6,2.6,0,0,1,2.594,2.607Z" transform="translate(-105.201 -68.55)"/>
    <path id="Path_61" data-name="Path 61" class="cls-4" d="M701.065,132.434V421.4a7.611,7.611,0,0,1-7.611,7.611H177.521a7.611,7.611,0,0,1-7.611-7.611V219.455q3.805-.656,7.611-.97,3.025-.247,6.1-.285h1.11c2.258,0,4.5.108,6.729.279.235-.545.488-1.091.723-1.636.888-1.953,1.808-3.894,2.733-5.809a.222.222,0,0,0,0-.051c.159-.33.317-.634.482-.983.748-1.56,1.528-3.108,2.328-4.643.368-.71.729-1.414,1.1-2.118.082-.165.165-.323.26-.488.381-.729.767-1.452,1.161-2.175q2.936-5.41,6.108-10.655c.184-.3.355-.6.539-.888.33-.539.634-1.078,1-1.611.875-1.421,1.776-2.835,2.683-4.237.634-.989,1.268-1.979,1.953-2.955q2.473-3.71,5.074-7.325t5.4-7.23c.254-.33.507-.634.774-.983l2.708-3.406h0l.374-.463h0l.983-1.2c1.452-1.769,2.943-3.52,4.44-5.251a255.456,255.456,0,0,1,24.291-24.449c.336-.311.679-.634,1.015-.9,1.611-1.4,3.247-2.784,4.883-4.141H591.135q2.226,1.833,4.389,3.723,2.626-1.947,5.34-3.723h92.6A7.611,7.611,0,0,1,701.065,132.434Z" transform="translate(-69.183 -65.675)"/>
    <path id="Path_62" data-name="Path 62" class="cls-5" d="M692.577,212.09v7.192H229.88c.875-1.421,1.776-2.835,2.689-4.237.634-.989,1.268-1.979,1.947-2.955Z" transform="translate(-91.118 -97.575)"/>
    <rect id="Rectangle_6" data-name="Rectangle 6" class="cls-5" width="273.889" height="7.192" transform="translate(502.215 79.379) rotate(90)"/>
    <rect id="Rectangle_7" data-name="Rectangle 7" class="cls-5" width="273.889" height="7.192" transform="translate(369.897 79.379) rotate(90)"/>
    <rect id="Rectangle_8" data-name="Rectangle 8" class="cls-5" width="273.889" height="7.192" transform="translate(237.58 79.379) rotate(90)"/>
    <path id="Path_63" data-name="Path 63" class="cls-6" d="M238.62,247.6v28.324H209.37V255.832c.159-.33.317-.634.482-.983.755-1.56,1.528-3.108,2.334-4.643.362-.71.723-1.414,1.1-2.118.082-.165.171-.323.26-.488Z" transform="translate(-83.616 -110.564)"/>
    <path id="Path_64" data-name="Path 64" class="cls-7" d="M238.412,248.359v27.348H210.17V255.1c.755-1.56,1.528-3.108,2.334-4.643.362-.71.723-1.414,1.1-2.118Z" transform="translate(-83.909 -110.834)"/>
    <rect id="Rectangle_9" data-name="Rectangle 9" class="cls-8" width="29.257" height="28.324" transform="translate(244.226 128.405)"/>
    <rect id="Rectangle_10" data-name="Rectangle 10" class="cls-9" width="28.248" height="27.348" transform="translate(244.734 128.893)"/>
    <rect id="Rectangle_11" data-name="Rectangle 11" class="cls-8" width="29.257" height="28.324" transform="translate(376.367 183.398)"/>
    <rect id="Rectangle_12" data-name="Rectangle 12" class="cls-9" width="28.248" height="27.348" transform="translate(376.874 183.886)"/>
    <rect id="Rectangle_13" data-name="Rectangle 13" class="cls-10" width="29.257" height="28.324" transform="translate(511.202 202.158)"/>
    <rect id="Rectangle_14" data-name="Rectangle 14" class="cls-11" width="28.248" height="27.348" transform="translate(511.703 202.647)"/>
    <rect id="Rectangle_15" data-name="Rectangle 15" class="cls-12" width="29.257" height="28.324" transform="translate(547.328 220.494)"/>
    <rect id="Rectangle_16" data-name="Rectangle 16" class="cls-11" width="28.248" height="27.348" transform="translate(547.835 220.982)"/>
    <rect id="Rectangle_17" data-name="Rectangle 17" class="cls-13" width="29.257" height="28.324" transform="translate(592.636 171.5)"/>
    <rect id="Rectangle_18" data-name="Rectangle 18" class="cls-9" width="28.248" height="27.348" transform="translate(593.137 171.988)"/>
    <rect id="Rectangle_19" data-name="Rectangle 19" class="cls-10" width="29.257" height="28.324" transform="translate(583.466 211.24)"/>
    <rect id="Rectangle_20" data-name="Rectangle 20" class="cls-9" width="28.248" height="27.348" transform="translate(583.967 211.729)"/>
    <rect id="Rectangle_21" data-name="Rectangle 21" class="cls-8" width="29.257" height="28.324" transform="translate(284.138 128.405)"/>
    <rect id="Rectangle_22" data-name="Rectangle 22" class="cls-9" width="28.248" height="27.348" transform="translate(284.645 128.893)"/>
    <rect id="Rectangle_23" data-name="Rectangle 23" class="cls-13" width="29.257" height="28.324" transform="translate(147.438 197.072)"/>
    <rect id="Rectangle_24" data-name="Rectangle 24" class="cls-14" width="28.248" height="27.348" transform="translate(147.939 197.56)"/>
    <rect id="Rectangle_25" data-name="Rectangle 25" class="cls-12" width="29.257" height="28.324" transform="translate(265.34 169.236)"/>
    <rect id="Rectangle_26" data-name="Rectangle 26" class="cls-14" width="28.248" height="27.348" transform="translate(265.847 169.724)"/>
    <rect id="Rectangle_27" data-name="Rectangle 27" class="cls-10" width="29.257" height="28.324" transform="translate(417.832 152.308)"/>
    <rect id="Rectangle_28" data-name="Rectangle 28" class="cls-14" width="28.248" height="27.348" transform="translate(418.333 152.797)"/>
    <rect id="Rectangle_29" data-name="Rectangle 29" class="cls-12" width="29.257" height="28.324" transform="translate(572.195 132.445)"/>
    <rect id="Rectangle_30" data-name="Rectangle 30" class="cls-14" width="28.248" height="27.348" transform="translate(572.703 132.933)"/>
    <rect id="Rectangle_31" data-name="Rectangle 31" class="cls-13" width="29.257" height="28.324" transform="translate(456.431 128.405)"/>
    <rect id="Rectangle_32" data-name="Rectangle 32" class="cls-14" width="28.248" height="27.348" transform="translate(456.932 128.893)"/>
    <rect id="Rectangle_33" data-name="Rectangle 33" class="cls-8" width="29.257" height="28.324" transform="translate(454.769 183.398)"/>
    <rect id="Rectangle_34" data-name="Rectangle 34" class="cls-14" width="28.248" height="27.348" transform="translate(455.277 183.886)"/>
    <rect id="Rectangle_35" data-name="Rectangle 35" class="cls-12" width="29.257" height="28.324" transform="translate(323.422 142.085)"/>
    <rect id="Rectangle_36" data-name="Rectangle 36" class="cls-14" width="28.248" height="27.348" transform="translate(323.929 142.567)"/>
    <rect id="Rectangle_37" data-name="Rectangle 37" class="cls-12" width="29.257" height="28.324" transform="translate(167.974 151.199)"/>
    <rect id="Rectangle_38" data-name="Rectangle 38" class="cls-15" width="28.248" height="27.348" transform="translate(168.481 151.687)"/>
    <rect id="Rectangle_39" data-name="Rectangle 39" class="cls-13" width="29.257" height="28.324" transform="translate(182.605 183.398)"/>
    <rect id="Rectangle_40" data-name="Rectangle 40" class="cls-15" width="28.248" height="27.348" transform="translate(183.106 183.886)"/>
    <rect id="Rectangle_41" data-name="Rectangle 41" class="cls-10" width="29.257" height="28.324" transform="translate(303.957 187.996)"/>
    <rect id="Rectangle_42" data-name="Rectangle 42" class="cls-16" width="28.248" height="27.348" transform="translate(304.458 188.484)"/>
    <rect id="Rectangle_43" data-name="Rectangle 43" class="cls-12" width="29.257" height="28.324" transform="translate(518.071 132.445)"/>
    <rect id="Rectangle_44" data-name="Rectangle 44" class="cls-15" width="28.248" height="27.348" transform="translate(518.578 132.933)"/>
    <rect id="Rectangle_45" data-name="Rectangle 45" class="cls-8" width="29.257" height="28.324" transform="translate(543.96 171.5)"/>
    <rect id="Rectangle_46" data-name="Rectangle 46" class="cls-15" width="28.248" height="27.348" transform="translate(544.467 171.988)"/>
    <rect id="Rectangle_47" data-name="Rectangle 47" class="cls-8" width="29.257" height="28.324" transform="translate(378.923 128.405)"/>
    <rect id="Rectangle_48" data-name="Rectangle 48" class="cls-15" width="28.248" height="27.348" transform="translate(379.43 128.893)"/>
    <rect id="Rectangle_49" data-name="Rectangle 49" class="cls-10" width="29.257" height="28.324" transform="translate(414.521 211.24)"/>
    <rect id="Rectangle_50" data-name="Rectangle 50" class="cls-15" width="28.248" height="27.348" transform="translate(415.022 211.729)"/>
    <path id="Path_65" data-name="Path 65" class="cls-17" d="M842.171,326.856a5.6,5.6,0,0,0-2.232-3.755,22.232,22.232,0,0,0-3.881-2.245,3.17,3.17,0,0,1-1.129-.805,10.1,10.1,0,0,1-.634-1.218c-.761-1.326-2.41-1.744-3.7-2.537-2.309-1.4-3.374-3.888-4.332-6.5-.063-.165-.114-.33-.178-.488-.932-2.588-1.82-5.239-3.755-7.053a8.055,8.055,0,0,0-10.071-.539,2.372,2.372,0,0,1-1.421.7,2.683,2.683,0,0,1-1.364-.736,5.562,5.562,0,0,0-3.4-.939,32.392,32.392,0,0,1-.958-7.072v-.063h0a.1.1,0,0,1,0-.044h0V291.8h.4a4.534,4.534,0,0,0,1.4-.159,3.806,3.806,0,0,0,.552-.2h0c1.706-.805,2.74-2.708,3.507-4.509.507-1.192.977-2.416,1.376-3.666.051-.159.1-.317.152-.482h0c.07-.254.152-.514.216-.774a1.185,1.185,0,0,1,.063-.247c.019-.082.044-.159.063-.241l.057-.266.323.228h0l.057.032.7.488c3.273,2.239,6.71,4.351,8.131,4.4h0a.736.736,0,0,0,.419-.082c.92-.507-.844-2.4-3.057-4.319-.184-.165-.38-.323-.577-.488-1.643-1.389-3.412-2.733-4.44-3.507l-.951-.691a9.375,9.375,0,0,0,2.334-5.074,39.359,39.359,0,0,0,.6-5.321v-.089a21.471,21.471,0,0,0-.514-5.708,13.2,13.2,0,0,0-6.342-8.79c-.951-.495-2.036-.882-2.974-1.414-.178-.1-.336-.209-.5-.317h0a4.4,4.4,0,0,1-.824-.7,2.872,2.872,0,0,1-.419-.571,1.7,1.7,0,0,1-.165-.3,3.843,3.843,0,0,0-.469-.907c-.634-.7-1.7-.495-2.619-.381h-.793c-3.292.076-6.469-1.763-9.8-1.763-3.64,0-6.742,2.112-9.951,3.558-.634.3-1.268.564-1.833.837-.482.228-.932.457-1.37.7h0a5.838,5.838,0,0,0-.495.311h0a7.039,7.039,0,0,0-2.715,3.171,6.532,6.532,0,0,0-1.338,2.581,6.375,6.375,0,0,0-.171,1.326,21.988,21.988,0,0,0-6.577,15.665v.958a22.007,22.007,0,0,0,15.659,20.143h0c.247.076.5.152.761.216.063.216.152.431.216.634.133.412.26.818.355,1.23h0a6.194,6.194,0,0,1,.152.634,17.171,17.171,0,0,1,.457,4.306v.381h0v.044a16.718,16.718,0,0,0-4.757,1.9,9.177,9.177,0,0,0-4,4.928,3.956,3.956,0,0,0-.127.463,12.734,12.734,0,0,0-3.621-.634,3.862,3.862,0,0,0-3.12.932,2.815,2.815,0,0,0-.577,1.2c-.431.387-.507,1.065-.805,1.586-.926,1.624-3.336,1.091-5.15,1.535a3.574,3.574,0,0,0-.539.178h0c-1.719.634-3.171,2.156-5,2.169a12.767,12.767,0,0,0-2.188-.121l-.133.032c-.755.19-1.357,1.23-.774,1.75a2.485,2.485,0,0,0-2.34,1.123c-.571.723-.92,1.586-1.535,2.264a2.372,2.372,0,0,0-2.4-.932,8.714,8.714,0,0,0-2.537,1,3.482,3.482,0,0,1-1.123.393,4.859,4.859,0,0,1-1.351-.121,10.909,10.909,0,0,0-6.4.894c-1.75.831-3.444-.7-5.378-.818a2.981,2.981,0,0,1-1.966-.634.85.85,0,0,1-.146-.159,2.863,2.863,0,0,1-.279-.488c-.127-.292-.209-.634-.317-.907a7.706,7.706,0,0,0-5.321-4.922l-.317-.076a5.612,5.612,0,0,0,.266-1.116h0a6.59,6.59,0,0,0-4.129-6.976,6.976,6.976,0,0,0-2.41-6.108,10.684,10.684,0,0,1-1.154-.907l-.063-.051a2.943,2.943,0,0,1-.438-.577h0a8.925,8.925,0,0,1-.672-1.478c-.564-1.509-1.142-3.019-1.706-4.528-.761-.152-1.351-.469-2.074-.59v-.463a15.043,15.043,0,0,0-.78-4.547,21,21,0,0,0-2.467-4.9h0c-.159-.254-.323-.5-.495-.748h0c-.216-.336-.45-.634-.679-.989a19.625,19.625,0,0,0-5.879-5.9,22.915,22.915,0,0,0-2.505-1.154l-4.44-1.82a2.087,2.087,0,0,0-.793-.216c-1.065,0-1.351,1.465-.926,2.473a2.5,2.5,0,0,0,.184.342c1.351,1.979,4.376,2.537,5.22,4.776a3.05,3.05,0,0,0-1.161.247,3.361,3.361,0,0,0-1.985,2.207,1.82,1.82,0,0,1-.419.989c-.4.311-1,.133-1.44.374-.786.419-.45,1.592-.533,2.48a11.208,11.208,0,0,1-.805,2.232,3.932,3.932,0,0,0-.1,1.8l.038.19h0a2.172,2.172,0,0,0,.057.279,5.746,5.746,0,0,0,.78,1.75,14.225,14.225,0,0,0,2.892,2.93c.723.6,1.459,1.2,2.232,1.744.222.152.438.3.634.444a.742.742,0,0,0-.07.12.872.872,0,0,1-.108.273h0a1.4,1.4,0,0,0-.076.786,1.268,1.268,0,0,0,.247.52h0a4.734,4.734,0,0,0,.558.571,11.416,11.416,0,0,1,3.476,6.279,3.844,3.844,0,0,1-.051,1.421h0a11.683,11.683,0,0,0-.565,2.879,4.53,4.53,0,0,0,.089.71h0a15.06,15.06,0,0,0,1,3.279c1.18,2.994,2.429,6.089,4.782,8.245a26.7,26.7,0,0,0,5.366,13.211c2.467,3.171,5.771,5.568,9.038,7.921a16.921,16.921,0,0,0,3.336,2.093,19.187,19.187,0,0,0,3.311.894,169.969,169.969,0,0,0,27.684,3.235l1.268.044h.063c0,.488.044.977.063,1.465q.323,7.313.3,14.638v1.313a7.353,7.353,0,0,1-.393,2.81,8.138,8.138,0,0,1-1.319,1.9c-.121.152-.254.311-.374.469-1.9,2.537-2.271,5.917-2.207,9.177v.057a13.958,13.958,0,0,0,.051,1.459,99.681,99.681,0,0,0,1.56,13c.748,4.072.431,8.46,1.015,12.583a20.3,20.3,0,0,0,1.015,4.135q1.148,3.089,2.3,6.171a5.417,5.417,0,0,1,.457,1.82,3.046,3.046,0,0,1-.044.59h0a10.383,10.383,0,0,1-1.516,3.063,10.6,10.6,0,0,0-1.338,5.607c0,.051,0,.1,0,.159h0a.913.913,0,0,0,.152.457c.247.342.767.311,1.18.247a47,47,0,0,1,4.979-.463h.178c-.057.07-.121.139-.178.216h0c-.19.26-.38.539-.564.844h0l-.089.152a19.027,19.027,0,0,0-1.1,2.245,21.228,21.228,0,0,0-1.459,4.027,3.671,3.671,0,0,0-.146.634c-.1.419-.19.837-.254,1.268a40.272,40.272,0,0,0-.457,6.6v.913c-.051.983-.1,1.979-.159,2.943a47.842,47.842,0,0,1-.755,7.788,6.407,6.407,0,0,0-.216,2.156v.032a17.663,17.663,0,0,0,.406,2.873c.2,1,.457,2.036.717,3.057v.1a11.131,11.131,0,0,0,.076,1.129v.051a18.625,18.625,0,0,0,1.008,4.9s0,.051,0,.076v.755a.846.846,0,0,0,0,.127h0c0,.457.057.92.1,1.376.139,1.338.362,2.67.634,4v.222q1.9,10.566,3.869,21.126c.076.425.159.844.241,1.268q2.131,11.3,4.44,22.572c.133.634.254,1.268.393,1.9.07.3.133.6.209.9s.178.729.266,1.091a31.361,31.361,0,0,0,5.778,11.416,52.224,52.224,0,0,1,6.025,9.653,1.127,1.127,0,0,1-.07.279h0c-.14.672-.292,1.338-.45,2l-.038.152c-1.687,7.16-3.939,14.219-4.719,21.564-.057.526-.1,1.053-.152,1.586a23.22,23.22,0,0,1-1.4,7.027c-.273.634-.6,1.237-.888,1.865a6.779,6.779,0,0,0-.679,2.3,1.77,1.77,0,0,0,0,.317.365.365,0,0,0,0,.082.261.261,0,0,0,0,.032h0a4.58,4.58,0,0,0,.634,2.245l-.082.063c-.171.133-.336.26-.495.393l-.317.266c-2.188,1.738-5.118,2.093-7.826,2.8s-5.6,2.131-6.437,4.807c-.051.171-.089.342-.127.52a1.754,1.754,0,0,0-.038.254h0a4.611,4.611,0,0,0-.057.78v.057a.787.787,0,0,0,0,.121,7.224,7.224,0,0,0,3.171,5.3c2.245,1.541,5.074,2.023,7.738,2.372s5.48.634,7.928,1.82c2.106,1.047,3.888,2.765,6.12,3.52.133.044.266.07.406.108l-.12.07c-.3.184-.634.362-.92.526l-.495.273a23.187,23.187,0,0,1-7.389,2.353c-2.613.362-5.708.533-7.059,2.8h0a.446.446,0,0,0-.051.114h0a1.506,1.506,0,0,0-.146.349v.051a.742.742,0,0,0-.057.152.9.9,0,0,0-.057.171,1.2,1.2,0,0,1,0,.146,2.712,2.712,0,0,0-.108.5,4.2,4.2,0,0,0,.044,1.319,5.911,5.911,0,0,0,1.706,3.089,12.323,12.323,0,0,0,5.886,2.6,106.035,106.035,0,0,0,14.651,1.82l4.776.368c1.706.133,3.418.26,5.125.381,1.211.076,2.423.152,3.634.209s2.309.1,3.463.12h1.8q4.44,0,8.822-.374c2.835-.254,5.638-.634,8.429-1.129a1.9,1.9,0,0,0,1.37-.634,1.269,1.269,0,0,0,.082-.159.549.549,0,0,0,.038-.108.229.229,0,0,0,0-.057.819.819,0,0,0,0-.121,1.621,1.621,0,0,0,0-.184v-.45c0-.6,0-1.2-.044-1.8v-.736l-.038-.742c-.044-.723-.089-1.452-.152-2.175l-.076-.863v-.285a5.121,5.121,0,0,0-.063-.634,1.1,1.1,0,0,0-.044-.374l-.114-1.021c-.089-.748-.19-1.49-.3-2.232q-.349-2.435-.856-4.839V610c-.121-.545-.241-1.085-.355-1.624-.4-1.712-2.734.634-4.04,2.1-.171-.818-.349-1.63-.564-2.423h0v-.1c.349-.159.691-.323,1.027-.488a3.653,3.653,0,0,0,1.9-1.573,2.736,2.736,0,0,0,.2-.85,3.722,3.722,0,0,0,0-.533q0-.209,0-.419c-.19-3.767-.419-7.668-2.207-10.972a23.336,23.336,0,0,0-4.357-5.315c0-.406-.044-.812-.063-1.218-.19-4.034-.463-8.067-.844-12.095a176.306,176.306,0,0,0-3.368-21.862c-.45-1.947-.907-3.894-1.471-5.816h0a38.054,38.054,0,0,0-4.921-10.991c-.425-.634-.882-1.268-1.345-1.9q-.2-3.564-.634-7.141c-.381-3.273-.888-6.533-1.427-9.761-.044-.3-.1-.634-.133-.932v-.051a3.07,3.07,0,0,1,.152-1.268,7.5,7.5,0,0,1,1.268-1.706,7.211,7.211,0,0,0,1.338-4.44,1.778,1.778,0,0,0,0-.184c0-1.681-.247-3.456-.362-5.125,0-.469-.044-.932-.044-1.4h0v-.051h0v-.209c0-.488,0-.97.032-1.452a63.816,63.816,0,0,1,1.9-11.112c.907-3.805,1.827-7.554,2.727-11.334h0q.542-2.207,1.059-4.44c.133-.526.26-1.046.38-1.573a27.829,27.829,0,0,1,1.471-4.8,46.011,46.011,0,0,1,3.755-6.057,33.962,33.962,0,0,0,5.3-18.031h0a.107.107,0,0,0,0-.044v-.076a.846.846,0,0,0,0-.127v-1.268h0a6.131,6.131,0,0,0-.057-1c.786.279,1.579.564,2.359.869a13.368,13.368,0,0,0,.1-1.433v-.051c.063-2.936-.577-6.057-.634-9.012a.415.415,0,0,1,0-.089v-.082a15.6,15.6,0,0,1,.2-2.9,11.674,11.674,0,0,1,.323-1.313c.222-.178.444-.355.634-.539h0a18.221,18.221,0,0,0,5.232-6.482c1.142-2.537,1.471-5.435,2.664-7.972a25.6,25.6,0,0,0,2.023-4.281,6.862,6.862,0,0,0,.209-1.433v-.076a47.155,47.155,0,0,0-.317-4.782h0V400c.063-4.4,2.8-8.524,3.108-12.818v-.057a10.292,10.292,0,0,0-.1-2.156c-.336-2.137-1.471-4.135-1.681-6.266h0a5.07,5.07,0,0,1-.038-.818,12.455,12.455,0,0,1,1-3.85c2.213-5.854,4.4-12.012,4.566-18.183a.172.172,0,0,0,0-.057v-.133a22.89,22.89,0,0,0-.387-5.042c-.292-1.617-.767-3.216-.894-4.839a10.372,10.372,0,0,1,0-1.268c.1-1.782.755-3.526.926-5.277h0a7.2,7.2,0,0,0,0-1.693,5.34,5.34,0,0,0-.571-1.674h0a5.3,5.3,0,0,0-.482-.761,28.883,28.883,0,0,0,2.581-4.947,9.262,9.262,0,0,0,.634-2.03,4.7,4.7,0,0,0,.025-1.275ZM798.778,606.688h0l-.063-.038a7.923,7.923,0,0,0-2.112-.6c-.178,0-.362-.038-.539-.051h-.038a10.5,10.5,0,0,0,.209-1.795v-1.782c0-.355-.032-.717-.057-1.072s-.07-.774-.1-1.161h0a1.658,1.658,0,0,1,0-.178c.082.241.171.482.273.723q1.173,3.057,2.537,6.019ZM813.46,277.3Z" transform="translate(-259.245 -109.971)"/>
    <path id="Path_66" data-name="Path 66" class="cls-18" d="M835.586,325.947c-.082,3.216-1.173,6.342-1.345,9.551,9.513.469,18.83-4.129,28.21-2.721-2.619-1.693-4.021-4.757-4.845-7.769a32.1,32.1,0,0,1-.926-11.936,4.826,4.826,0,0,1,.114-.634c.349-1.573,1.268-3.805,1.008-5.042-.317-1.636-1.865-1.313-3.254-1.218a123.113,123.113,0,0,0-12.646,1.63c-1.091.19-11.714,2.841-11.873,2.569a50.368,50.368,0,0,1,4.6,9.469,18.45,18.45,0,0,1,.958,6.1Z" transform="translate(-310.64 -131.957)"/>
    <path id="Path_67" data-name="Path 67" class="cls-18" d="M690.458,310.2a13.739,13.739,0,0,0,2.9,2.917c.717.59,1.452,1.192,2.226,1.731a9.513,9.513,0,0,0,4.738,1.9c2.258.152,7.053-1.173,8.454-3.108a5.594,5.594,0,0,0,.805-3.235,14.993,14.993,0,0,0-.774-4.528,25.183,25.183,0,0,0-3.659-6.609,19.45,19.45,0,0,0-5.873-5.879,22.793,22.793,0,0,0-2.5-1.148l-4.44-1.814a2.227,2.227,0,0,0-.805-.209c-1.186,0-1.4,1.82-.729,2.8,1.345,1.972,4.37,2.537,5.22,4.757a3.387,3.387,0,0,0-3.171,2.435,1.737,1.737,0,0,1-.425.989c-.387.311-1,.133-1.44.368-.78.419-.438,1.586-.52,2.473a11.264,11.264,0,0,1-.812,2.22,4.719,4.719,0,0,0,.805,3.939Z" transform="translate(-259.244 -126.153)"/>
    <path id="Path_68" data-name="Path 68" class="cls-19" d="M885.685,821.879c-.729-.729-1.9-.6-2.943-.444a109.347,109.347,0,0,1-16.534,1.338c-.691-3.387,1.319-6.678,1.966-10.072a8.881,8.881,0,0,1,.634-2.537c.774-1.5,2.537-2.182,4.186-2.537,2.981-.634,7.611-1.738,9.3,1.268C884.321,812.518,884.962,817.858,885.685,821.879Z" transform="translate(-323.821 -315.142)"/>
    <path id="Path_69" data-name="Path 69" class="cls-20" d="M799.642,801.027c2.245,1.535,5.036,2.01,7.738,2.359s5.48.6,7.928,1.807c2.112,1.04,3.888,2.753,6.127,3.5a12.7,12.7,0,0,0,6.342.1c2.537-.469,5.188-1.389,6.545-3.558,1.211-1.9,1.078-4.37.913-6.64-.2-2.537-.38-5.137-.571-7.706a3.761,3.761,0,0,0-.476-1.865c-1.82-2.645-6.234,1.11-8.594,1.1-3.748,0-7.769-2.03-10.465-4.516a3.17,3.17,0,0,0-.812-.634c-1.072-.482-2.137.406-3.089,1.18-.1.089-.209.171-.317.254-2.188,1.738-5.118,2.087-7.82,2.791s-5.6,2.118-6.437,4.782a3.813,3.813,0,0,0-.127.514C796.046,796.993,797.542,799.587,799.642,801.027Z" transform="translate(-298.352 -307.076)"/>
    <path id="Path_70" data-name="Path 70" class="cls-21" d="M799.642,801.027c2.245,1.535,5.036,2.01,7.738,2.359s5.48.6,7.928,1.807c2.112,1.04,3.888,2.753,6.127,3.5a12.7,12.7,0,0,0,6.342.1c2.537-.469,5.188-1.389,6.545-3.558,1.211-1.9,1.078-4.37.913-6.64-.2-2.537-.38-5.137-.571-7.706a3.761,3.761,0,0,0-.476-1.865c-1.82-2.645-6.234,1.11-8.594,1.1-3.748,0-7.769-2.03-10.465-4.516a3.17,3.17,0,0,0-.812-.634c-1.072-.482-2.137.406-3.089,1.18-.1.089-.209.171-.317.254-2.188,1.738-5.118,2.087-7.82,2.791s-5.6,2.118-6.437,4.782a3.813,3.813,0,0,0-.127.514C796.046,796.993,797.542,799.587,799.642,801.027Z" transform="translate(-298.352 -307.076)"/>
    <path id="Path_71" data-name="Path 71" class="cls-22" d="M799.505,801.879c2.245,1.535,5.036,2.01,7.737,2.359s5.48.6,7.928,1.807c2.112,1.047,3.888,2.753,6.127,3.5a12.7,12.7,0,0,0,6.342.1,10.5,10.5,0,0,0,6.545-4.44c1.211-1.9,1.078-4.37.913-6.64-.2-2.537-.381-5.137-.571-7.706a3.761,3.761,0,0,0-.476-1.865c-1.82-2.645-6.234,1.11-8.594,1.1-3.748,0-7.769-2.03-10.465-4.516a3.171,3.171,0,0,0-.812-.634c-1.072-.482-2.137.406-3.089,1.18a22.2,22.2,0,0,0,2.632,5.429,11.358,11.358,0,0,0,8.245,5.163c1.674.121,3.393-.209,5.01.222s3.127,2.087,2.537,3.659-2.537,1.9-4.173,1.96a18.685,18.685,0,0,1-6.805-.476c-1.326-.444-2.537-1.173-3.805-1.712-5.486-2.277-12.418-1-16.953-4.845a9.639,9.639,0,0,0-1.383-1.059C795.211,796.982,797.406,800.439,799.505,801.879Z" transform="translate(-298.216 -307.065)"/>
    <path id="Path_72" data-name="Path 72" class="cls-21" d="M799.505,801.879c2.245,1.535,5.036,2.01,7.737,2.359s5.48.6,7.928,1.807c2.112,1.047,3.888,2.753,6.127,3.5a12.7,12.7,0,0,0,6.342.1,10.5,10.5,0,0,0,6.545-4.44c1.211-1.9,1.078-4.37.913-6.64-.2-2.537-.381-5.137-.571-7.706a3.761,3.761,0,0,0-.476-1.865c-1.82-2.645-6.234,1.11-8.594,1.1-3.748,0-7.769-2.03-10.465-4.516a3.171,3.171,0,0,0-.812-.634c-1.072-.482-2.137.406-3.089,1.18a22.2,22.2,0,0,0,2.632,5.429,11.358,11.358,0,0,0,8.245,5.163c1.674.121,3.393-.209,5.01.222s3.127,2.087,2.537,3.659-2.537,1.9-4.173,1.96a18.685,18.685,0,0,1-6.805-.476c-1.326-.444-2.537-1.173-3.805-1.712-5.486-2.277-12.418-1-16.953-4.845a9.639,9.639,0,0,0-1.383-1.059C795.211,796.982,797.406,800.439,799.505,801.879Z" transform="translate(-298.216 -307.065)"/>
    <path id="Path_73" data-name="Path 73" class="cls-23" d="M859.253,541.194a33.728,33.728,0,0,1-4.63,24.9,48.223,48.223,0,0,0-3.755,6.025A27.8,27.8,0,0,0,849.4,576.9l-4.16,17.245c-1.129,4.655-2.258,9.4-1.9,14.175.235,3.33,1.072,7.072-.977,9.7a7.137,7.137,0,0,0-1.268,1.7,4.345,4.345,0,0,0,0,2.245c2.106,12.52,3.672,25.6-.133,37.717-3.45,10.978-3.653,23.143-6.583,34.248a7.61,7.61,0,0,1-1.827,3.805,5.955,5.955,0,0,1-2.727,1.268c-4.325,1.034-8.879-.178-12.925-2.042-2.835-1.313-5.886-3.615-5.645-6.729.121-1.484.983-2.784,1.573-4.148,1.148-2.676,1.268-5.664,1.554-8.562.78-7.281,3.025-14.3,4.719-21.424s2.848-14.555,1.414-21.735a189.98,189.98,0,0,0-13.953-43.013,5.118,5.118,0,0,0-1.268-1.9c-.571-.469-1.326-.685-1.814-1.268a5.577,5.577,0,0,1-.824-2.251c-.634-2.271-2.505-3.945-3.761-5.943-3.171-5.036-2.169-11.492-2.049-17.441.114-5.79-.717-11.632.228-17.34s4.218-11.543,9.723-13.319c2.727-.882,5.676-.685,8.53-.4C830.377,532.994,845.053,535.766,859.253,541.194Z" transform="translate(-298.41 -214.316)"/>
    <path id="Path_74" data-name="Path 74" class="cls-21" d="M859.253,541.194a33.728,33.728,0,0,1-4.63,24.9,48.223,48.223,0,0,0-3.755,6.025A27.8,27.8,0,0,0,849.4,576.9l-4.16,17.245c-1.129,4.655-2.258,9.4-1.9,14.175.235,3.33,1.072,7.072-.977,9.7a7.137,7.137,0,0,0-1.268,1.7,4.345,4.345,0,0,0,0,2.245c2.106,12.52,3.672,25.6-.133,37.717-3.45,10.978-3.653,23.143-6.583,34.248a7.61,7.61,0,0,1-1.827,3.805,5.955,5.955,0,0,1-2.727,1.268c-4.325,1.034-8.879-.178-12.925-2.042-2.835-1.313-5.886-3.615-5.645-6.729.121-1.484.983-2.784,1.573-4.148,1.148-2.676,1.268-5.664,1.554-8.562.78-7.281,3.025-14.3,4.719-21.424s2.848-14.555,1.414-21.735a189.98,189.98,0,0,0-13.953-43.013,5.118,5.118,0,0,0-1.268-1.9c-.571-.469-1.326-.685-1.814-1.268a5.577,5.577,0,0,1-.824-2.251c-.634-2.271-2.505-3.945-3.761-5.943-3.171-5.036-2.169-11.492-2.049-17.441.114-5.79-.717-11.632.228-17.34s4.218-11.543,9.723-13.319c2.727-.882,5.676-.685,8.53-.4C830.377,532.994,845.053,535.766,859.253,541.194Z" transform="translate(-298.41 -214.316)"/>
    <path id="Path_75" data-name="Path 75" class="cls-23" d="M797.027,579.108a36.6,36.6,0,0,0,.761,6.685q4,22.42,8.518,44.738c.266,1.268.526,2.581.875,3.85a31.275,31.275,0,0,0,5.771,11.353c12.558,15.653,13.642,38.389,20.46,57.27.457,1.268.92,2.537,1.408,3.805a93.414,93.414,0,0,0,4.2,9.38,2.665,2.665,0,0,0,.863,1.123,2.594,2.594,0,0,0,1.37.266,39.956,39.956,0,0,0,17.727-4.015,3.685,3.685,0,0,0,1.9-1.56,3.836,3.836,0,0,0,.2-1.8c-.19-3.742-.419-7.611-2.2-10.909A23.4,23.4,0,0,0,854.52,694a200.828,200.828,0,0,0-4.275-34.99c-1.326-5.867-2.968-11.8-6.342-16.756-2.537-3.659-6.114-7.268-5.67-11.689.2-1.9,1.008-4.351-.571-5.492-.691-.5-1.712-.564-2.175-1.268a2.4,2.4,0,0,1-.3-1.091,27.056,27.056,0,0,1,.558-9.063,48.775,48.775,0,0,0,1.351-5.9,7.444,7.444,0,0,0-1.484-5.708c-.082-4.034,0-8.245-.057-12.24a22.833,22.833,0,0,1,.564-6.837c.311-1.059.774-2.068,1.008-3.171.844-3.869-1.268-8.511,1.268-11.581,1.046-1.268,2.657-1.9,4.021-2.829a14.759,14.759,0,0,0,5.518-7.934,45.419,45.419,0,0,0,1.567-9.716,10.11,10.11,0,0,0,0-2.1,3.76,3.76,0,0,0-.279-1.047c-.78-1.75-2.873-2.429-4.738-2.879a153.113,153.113,0,0,0-36.151-4.224c-4.5-3.07-7.04-1.972-8.949,1.268a33.751,33.751,0,0,0-2.537,6.222c-.875,2.632-.926,17.384-1.776,20.029C793.881,568.466,797.072,575.493,797.027,579.108Z" transform="translate(-297.755 -215.933)"/>
    <path id="Path_76" data-name="Path 76" class="cls-24" d="M909.374,389.79c.336,2.321-.78,4.6-.907,6.945-.108,2.042.545,4.04.92,6.057,1.452,7.864-1.338,15.824-4.186,23.295a11.986,11.986,0,0,0-.989,3.805c-.076,2.442,1.326,4.674,1.712,7.084.806,5.074-2.924,9.824-3.006,14.955,0,2.359.71,4.763.121,7.046a24.686,24.686,0,0,1-2.023,4.262c-1.2,2.537-1.516,5.385-2.664,7.928-2.061,4.6-6.5,7.611-10.718,10.37-2.4-.8-5-1.75-6.342-3.913a9.633,9.633,0,0,1-1.1-3.431,89.556,89.556,0,0,1-.85-15.919,98.827,98.827,0,0,1,.748-13.648c.85-5.784,2.727-11.359,4.072-17.048,1.7-7.173,2.537-14.587,5.213-21.468,2.321-6.05,5.943-11.479,9.754-16.674,1.452-1.985,2.6-4.82,5.422-4.363A5.911,5.911,0,0,1,909.374,389.79Z" transform="translate(-328.673 -160.83)"/>
    <path id="Path_77" data-name="Path 77" class="cls-25" d="M909.374,389.79c.336,2.321-.78,4.6-.907,6.945-.108,2.042.545,4.04.92,6.057,1.452,7.864-1.338,15.824-4.186,23.295a11.986,11.986,0,0,0-.989,3.805c-.076,2.442,1.326,4.674,1.712,7.084.806,5.074-2.924,9.824-3.006,14.955,0,2.359.71,4.763.121,7.046a24.686,24.686,0,0,1-2.023,4.262c-1.2,2.537-1.516,5.385-2.664,7.928-2.061,4.6-6.5,7.611-10.718,10.37-2.4-.8-5-1.75-6.342-3.913a9.633,9.633,0,0,1-1.1-3.431,89.556,89.556,0,0,1-.85-15.919,98.827,98.827,0,0,1,.748-13.648c.85-5.784,2.727-11.359,4.072-17.048,1.7-7.173,2.537-14.587,5.213-21.468,2.321-6.05,5.943-11.479,9.754-16.674,1.452-1.985,2.6-4.82,5.422-4.363A5.911,5.911,0,0,1,909.374,389.79Z" transform="translate(-328.673 -160.83)"/>
    <path id="Path_78" data-name="Path 78" class="cls-26" d="M830,310.337a50.371,50.371,0,0,1,4.6,9.469,21.822,21.822,0,0,0,5.22.634c6.831,0,11.67-3.888,15.684-8.8.349-1.579,2.537-3.044,2.271-4.287-.317-1.636-1.865-1.313-3.254-1.218a123.132,123.132,0,0,0-12.646,1.63C840.782,307.958,830.178,310.609,830,310.337Z" transform="translate(-310.629 -131.943)"/>
    <circle id="Ellipse_5" data-name="Ellipse 5" class="cls-18" cx="21.887" cy="21.887" r="21.887" transform="translate(507.321 144.127)"/>
    <path id="Path_79" data-name="Path 79" class="cls-26" d="M801.9,538.779c3.805-.222,7.611-.07,11.416.082a38.4,38.4,0,0,1,7.078.729c2.873.634,5.562,1.96,8.4,2.778,4.541,1.326,9.336,1.383,14.035,1.846a80.267,80.267,0,0,1,9.19,1.44,3.76,3.76,0,0,0-.279-1.047c-.78-1.75-2.873-2.429-4.738-2.879a153.11,153.11,0,0,0-36.151-4.224C806.346,534.435,803.809,535.532,801.9,538.779Z" transform="translate(-300.351 -215.941)"/>
    <path id="Path_80" data-name="Path 80" class="cls-27" d="M811.568,346.161c.958,1.1,2.239,2.321,3.653,1.966a5.13,5.13,0,0,0,1.421-.761c2.537-1.63,5.619-2.01,8.587-2.454a126.84,126.84,0,0,0,17.689-3.977,18,18,0,0,1,5.232-1.065c3.71,0,6.977,2.486,9.323,5.378s3.97,6.272,6.253,9.2c1.624,2.087,3.558,3.926,5.074,6.089,3.805,5.461,4.655,12.589,3.666,19.192s-3.628,12.818-6.241,18.963a67.452,67.452,0,0,1-5.074,10.268c.882,5.017.419,10.75-1.966,15.221a14.862,14.862,0,0,0-1.985,4.535,11.259,11.259,0,0,0,.133,3.323l1.116,7.921c.336,2.416.679,4.826,1.116,7.224.805,4.389,1.9,9.152-.133,13.122-2.435,4.75.12,10.845-.52,16.147a81.224,81.224,0,0,0-21.329-5.074c-4.706-.463-9.513-.52-14.035-1.839-2.835-.825-5.518-2.131-8.4-2.791a38.9,38.9,0,0,0-7.084-.723,83.886,83.886,0,0,0-15.716.355c-.425.063-.932.1-1.186-.247a1.136,1.136,0,0,1-.159-.634,10.433,10.433,0,0,1,1.345-5.568c.634-1.167,1.579-2.315,1.554-3.653a5.492,5.492,0,0,0-.457-1.814l-2.3-6.139c-1.947-5.175-1.021-11.194-2.03-16.629a97.661,97.661,0,0,1-1.509-12.868c-.19-3.691-.07-7.693,2.156-10.642a12.053,12.053,0,0,0,1.681-2.34,7.036,7.036,0,0,0,.4-2.8q.076-11.073-.634-22.141c1.947-3.488,3.97-7.059,5.911-10.547,2.258-4.059,4.554-8.2,5.467-12.754.634-3.019.583-6.12,1.015-9.164a3.963,3.963,0,0,1,.774-2.144,3.912,3.912,0,0,1,3.114-.926,13.661,13.661,0,0,1,4.072.793Z" transform="translate(-295.102 -144.314)"/>
    <path id="Path_81" data-name="Path 81" class="cls-26" d="M699.07,326.309a9.514,9.514,0,0,0,4.738,1.9c2.258.152,7.053-1.173,8.454-3.108a5.594,5.594,0,0,0,.805-3.234,3.912,3.912,0,0,0-.939-.184,24.543,24.543,0,0,0-7.344.3,8.308,8.308,0,0,0-5.708,4.281Z" transform="translate(-262.738 -137.615)"/>
    <path id="Path_82" data-name="Path 82" class="cls-27" d="M772.131,374a15.5,15.5,0,0,1-4.611,4.344c-2.175,1.129-4.738,1.154-7.186,1.1a171.831,171.831,0,0,1-30.03-3.3,18.554,18.554,0,0,1-3.3-.888,17.6,17.6,0,0,1-3.342-2.08c-3.254-2.34-6.558-4.725-9.038-7.883a26.529,26.529,0,0,1-5.353-13.135c-2.359-2.169-3.609-5.258-4.788-8.245a12.734,12.734,0,0,1-1.091-4c-.063-1.414.875-2.9.634-4.294a11.353,11.353,0,0,0-3.469-6.247,2.264,2.264,0,0,1-.831-1.1,1.776,1.776,0,0,1,.2-1.072,8.255,8.255,0,0,1,5.708-4.281,24.56,24.56,0,0,1,7.344-.292,18.908,18.908,0,0,1,2.4.634l1.712,4.509a5.848,5.848,0,0,0,1.123,2.055,11.109,11.109,0,0,0,1.211.951,6.976,6.976,0,0,1,2.41,6.076,6.526,6.526,0,0,1,3.862,8.055,7.7,7.7,0,0,1,5.645,4.972,3.73,3.73,0,0,0,.736,1.547,3.019,3.019,0,0,0,1.972.634c1.9.121,3.621,1.643,5.378.818a10.9,10.9,0,0,1,6.361-.894,4.712,4.712,0,0,0,1.364.12,3.7,3.7,0,0,0,1.116-.387,9.165,9.165,0,0,1,2.537-1,2.372,2.372,0,0,1,2.4.932c.634-.672.983-1.535,1.541-2.251a2.461,2.461,0,0,1,2.334-1.116c-.583-.52,0-1.554.767-1.744a9.623,9.623,0,0,1,2.334.089c2.023,0,3.577-1.852,5.543-2.334,1.807-.438,4.218.089,5.143-1.528.33-.571.393-1.345.951-1.693a1.82,1.82,0,0,1,1.218-.146,12,12,0,0,1,3.7,1.123c1.9,7.414.9,15.113-.545,22.629A20.058,20.058,0,0,1,772.131,374Z" transform="translate(-262.971 -137.961)"/>
    <path id="Path_83" data-name="Path 83" class="cls-26" d="M812.724,444.149l9.425,19.027c-1.021-1.757-3.171-2.442-4.865-3.564a12.888,12.888,0,0,1-4.649-6.247,38.352,38.352,0,0,1-1.814-7.725c-.19-1.205-.59-2.9,0-3.989C811.919,441.872,812.274,443.255,812.724,444.149Z" transform="translate(-303.501 -181.543)"/>
    <path id="Path_84" data-name="Path 84" class="cls-26" d="M854.492,468.875c2.125,2.106,4.731,3.653,7.072,5.518,5.467,4.351,9.361,10.325,13.166,16.185a25.621,25.621,0,0,1,2.689,4.934c-.444.387-1.11,0-1.547-.4l-7.408-6.507a16.714,16.714,0,0,1-2.467-2.5c-1.268-1.725-1.852-3.888-3.019-5.708a22.479,22.479,0,0,0-4.5-4.585c-1.63-1.414-9.513-8.061-7.611-10.623C852.247,465.875,853.382,467.778,854.492,468.875Z" transform="translate(-318.155 -190.153)"/>
    <path id="Path_85" data-name="Path 85" class="cls-24" d="M828.812,338.593a22.147,22.147,0,0,1,7.833-2.581,16.49,16.49,0,0,1,4.985-.355c1.541.19,3.019.786,4.573.869,2.175.127,4.262-.761,6.342-1.332s4.535-.8,6.3.476a2.734,2.734,0,0,0,1.37.729,2.385,2.385,0,0,0,1.414-.7,8.08,8.08,0,0,1,10.065.533c4.015,3.761,3.564,11.112,8.245,13.953,1.3.786,2.956,1.205,3.71,2.537a8.812,8.812,0,0,0,.634,1.211,3.259,3.259,0,0,0,1.129.805,22.151,22.151,0,0,1,3.881,2.226,5.556,5.556,0,0,1,2.233,3.742,6.976,6.976,0,0,1-.691,3.171,29.5,29.5,0,0,1-28.68,18.342,4.555,4.555,0,0,1-3.006-.939,5.657,5.657,0,0,1-1.053-1.731c-2.207-4.636-6.342-8.061-9-12.469-1.573-2.626-2.581-5.562-4.218-8.15-2.435-3.932-6.209-6.856-9.888-9.64-2.08-1.586-4.4-3.247-7.015-3.139-2.328.1-4.027.228-3.171-2.632a9.139,9.139,0,0,1,4-4.928Z" transform="translate(-308.648 -142.238)"/>
    <path id="Path_86" data-name="Path 86" class="cls-25" d="M828.812,338.593a22.147,22.147,0,0,1,7.833-2.581,16.49,16.49,0,0,1,4.985-.355c1.541.19,3.019.786,4.573.869,2.175.127,4.262-.761,6.342-1.332s4.535-.8,6.3.476a2.734,2.734,0,0,0,1.37.729,2.385,2.385,0,0,0,1.414-.7,8.08,8.08,0,0,1,10.065.533c4.015,3.761,3.564,11.112,8.245,13.953,1.3.786,2.956,1.205,3.71,2.537a8.812,8.812,0,0,0,.634,1.211,3.259,3.259,0,0,0,1.129.805,22.151,22.151,0,0,1,3.881,2.226,5.556,5.556,0,0,1,2.233,3.742,6.976,6.976,0,0,1-.691,3.171,29.5,29.5,0,0,1-28.68,18.342,4.555,4.555,0,0,1-3.006-.939,5.657,5.657,0,0,1-1.053-1.731c-2.207-4.636-6.342-8.061-9-12.469-1.573-2.626-2.581-5.562-4.218-8.15-2.435-3.932-6.209-6.856-9.888-9.64-2.08-1.586-4.4-3.247-7.015-3.139-2.328.1-4.027.228-3.171-2.632a9.139,9.139,0,0,1,4-4.928Z" transform="translate(-308.648 -142.238)"/>
    <path id="Path_87" data-name="Path 87" class="cls-20" d="M812.261,831.26a12.269,12.269,0,0,0,5.879,2.588,107.036,107.036,0,0,0,14.644,1.808l4.782.368c4.668.349,9.342.71,14.029.729a96.511,96.511,0,0,0,17.251-1.49,1.459,1.459,0,0,0,1.579-1.75,83.359,83.359,0,0,0-2.118-17.321c-.545-2.334-4.731,2.9-4.915,3.12a4.843,4.843,0,0,1-3.805,2.017c-4.814.266-10.211-2.664-14.035-5.264a17.538,17.538,0,0,0-2.6-1.611,7.491,7.491,0,0,0-2.1-.634,12.717,12.717,0,0,0-7.167,1.452c-2.873,1.427-5.4,3.475-8.245,4.941a23,23,0,0,1-7.389,2.34c-2.607.362-5.708.533-7.059,2.791C809.883,827.233,810.682,829.77,812.261,831.26Z" transform="translate(-303.488 -317.654)"/>
    <path id="Path_88" data-name="Path 88" class="cls-22" d="M812.07,832.168a12.269,12.269,0,0,0,5.879,2.588,107.017,107.017,0,0,0,14.644,1.807l4.782.368c4.668.349,9.342.71,14.029.729a96.516,96.516,0,0,0,17.251-1.49,1.9,1.9,0,0,0,1.37-.634,7.858,7.858,0,0,0,1.065-1.953c-.1-5.828-1.674-11.644-2.981-17.321-.545-2.334-4.731,2.9-4.915,3.12a4.843,4.843,0,0,1-3.805,2.017c-4.814.266-10.211-2.664-14.035-5.264a17.534,17.534,0,0,0-2.6-1.611,7.493,7.493,0,0,0-2.1-.634c.634,3.463,5.588,7.649,8.15,8.923,5.188,2.575,11.353,1.268,17.124,1.592a2.352,2.352,0,0,1,1.211.3c.7.457.736,1.44.717,2.271-.051,1.383-.228,3-1.421,3.7a4.046,4.046,0,0,1-1.9.4,271.163,271.163,0,0,1-42.747-1.5,23.623,23.623,0,0,1-6.976-1.548,17.85,17.85,0,0,1-4.04-2.6C808.969,826.873,810.491,830.691,812.07,832.168Z" transform="translate(-303.297 -317.7)"/>
    <path id="Path_89" data-name="Path 89" class="cls-20" d="M828.187,279.608c.082,2.264-1.459,6.653,2.772,5.429,2.537-.736,3.235-3.723,6.437-3.057s3.939,4.611,5.023,7.192a13.756,13.756,0,0,0,9.97,8.061,5.993,5.993,0,0,0,2.746,0c2.068-.59,3.247-2.721,4.091-4.693a37.536,37.536,0,0,0,1.807-5.15,21.918,21.918,0,0,0,.634-3.805h0a17.122,17.122,0,0,0,0-2.613c-.387-5.144-3.311-9.837-7.065-13.388s-8.3-6.108-12.8-8.638a18.634,18.634,0,0,0-4.725-2.106,15.819,15.819,0,0,0-4.985-.2,17.2,17.2,0,0,0-6.342,1.49,8.976,8.976,0,0,0-2.232,1.567,6.685,6.685,0,0,0-1.9,3.228c-.812,3.33,1.306,6.342,3.032,8.949C826.177,274.218,828.073,276.7,828.187,279.608Z" transform="translate(-307.497 -113.829)"/>
    <path id="Path_90" data-name="Path 90" class="cls-26" d="M719.77,363.31c.907-2.277,4.712-8.581,3.609-10.75a28.668,28.668,0,0,0-2.892,5.169C719.77,359.492,720.354,361.858,719.77,363.31Z" transform="translate(-270.309 -148.956)"/>
    <path id="Path_91" data-name="Path 91" class="cls-26" d="M824.5,273.454c-1.725-2.632-3.85-5.626-3.038-8.949a7.046,7.046,0,0,1,2.461-3.685,6.128,6.128,0,0,0-.634,1.554c-.812,3.323,1.313,6.342,3.038,8.949,1.529,2.334,3.425,4.814,3.539,7.725.082,2.258-1.465,6.653,2.772,5.429,2.537-.729,3.234-3.723,6.437-3.051s3.932,4.6,5.017,7.186a13.782,13.782,0,0,0,10,8.061,5.993,5.993,0,0,0,2.746,0,4.1,4.1,0,0,0,1.268-.634,5.568,5.568,0,0,1-3.133,2.765,5.994,5.994,0,0,1-2.746,0,13.782,13.782,0,0,1-9.957-8.061c-1.085-2.581-1.789-6.513-5.017-7.192s-3.913,2.328-6.437,3.057c-4.237,1.224-2.689-3.171-2.772-5.429C827.926,278.267,826.024,275.788,824.5,273.454Z" transform="translate(-307.439 -115.399)"/>
    <path id="Path_92" data-name="Path 92" class="cls-26" d="M824.063,267.387a19.751,19.751,0,0,0,1.268,1.852,22.691,22.691,0,0,0,2.994,3.1,23.45,23.45,0,0,0,2.023,1.586,32.474,32.474,0,0,0,4.084,2.442,75.007,75.007,0,0,0,13.078,4.681l8.74,2.537c1.072.812,3.038,2.277,5.207,3.805a21.912,21.912,0,0,0,.634-3.805h0a17.13,17.13,0,0,0,0-2.613c-.387-5.144-3.311-9.837-7.065-13.388s-8.3-6.108-12.8-8.638a18.634,18.634,0,0,0-4.725-2.106,15.819,15.819,0,0,0-4.985-.2,17.2,17.2,0,0,0-6.342,1.49,8.974,8.974,0,0,0-2.233,1.567,8.335,8.335,0,0,0-1.123,2.372C822.326,263.867,823.087,265.8,824.063,267.387Z" transform="translate(-307.946 -113.829)"/>
    <path id="Path_93" data-name="Path 93" class="cls-27" d="M824.074,264.069a19.759,19.759,0,0,0,1.268,1.852,22.687,22.687,0,0,0,2.994,3.1,23.435,23.435,0,0,0,2.023,1.586,32.474,32.474,0,0,0,4.084,2.442,75.552,75.552,0,0,0,13.078,4.687l8.74,2.537c3.051,2.309,13.255,9.868,14.974,8.924,2.023-1.11-9.057-8.955-9.057-8.955l-.514.387c1.624-1.021,2.474-3.387,2.841-5.429a27.514,27.514,0,0,0,.082-11.08,13.143,13.143,0,0,0-6.342-8.752c-1.471-.755-3.254-1.268-4.313-2.429a3.105,3.105,0,0,1-.419-.564,2.732,2.732,0,0,1-.165-.3,3.893,3.893,0,0,0-.463-.9c-.634-.7-1.712-.495-2.632-.381l-.292.032h-.495c-3.285.076-6.469-1.757-9.792-1.757-3.647,0-6.742,2.106-9.951,3.545-.634.292-1.268.558-1.839.831-2.315,1.078-4.059,2.226-5.017,5.3C822.336,260.549,823.1,262.477,824.074,264.069Z" transform="translate(-307.956 -111.101)"/>
    <path id="Path_94" data-name="Path 94" class="cls-26" d="M864.823,251.833a1.49,1.49,0,0,0,.342,1.9,2.721,2.721,0,0,0,1.383.495,10.029,10.029,0,0,0,1.072.082,2.949,2.949,0,0,0,1.421-.247,1.269,1.269,0,0,0,.247-.159,3.1,3.1,0,0,1-.419-.564c-.082.063-.165.051-.495,0a7.61,7.61,0,0,1-1.769-.3,1.738,1.738,0,0,1-1.268-1.268Z" transform="translate(-323.292 -112.089)"/>
    <path id="Path_95" data-name="Path 95" class="cls-26" d="M881.443,298.051a4.058,4.058,0,0,1-1.509.565,6.12,6.12,0,0,1-1.173.19A6.5,6.5,0,0,1,875.9,298Z" transform="translate(-327.418 -128.999)"/>
    <path id="Path_96" data-name="Path 96" class="cls-28" d="M439.9,341.2l-.825-1.814-.33.089.863,1.808,6.215,13.1c-.133.171-1.966,2.366-1.9,4.44a2.988,2.988,0,0,0,.159.945c.317.926.71,1.3,1.065,1.4v-.159a3.9,3.9,0,0,1,0-.634V360.1a.624.624,0,0,1,0-.108v-.044h0a1.1,1.1,0,0,0,.032-.14h0a.139.139,0,0,1,0-.051v-.063l.076-.273.032-.076.038-.14c.032-.089.063-.184.1-.273a.752.752,0,0,1,.051-.127l.076-.178c.076-.178.165-.349.247-.52a5.235,5.235,0,0,1,.26-.463,11.062,11.062,0,0,1,.837-1.205Zm6.913,21.944h-.038a.786.786,0,0,1-.387,0h-.063a.812.812,0,0,1-.114-.038.9.9,0,0,1-.26-.159l-.1-.089a2.371,2.371,0,0,1-.457-.723,2.329,2.329,0,0,0-.14.742,1.186,1.186,0,0,0,.577,1.11,2.156,2.156,0,0,1,.6.6h0a.044.044,0,0,0,0-.038h0a.186.186,0,0,1,0-.057.109.109,0,0,1,0-.044,3.457,3.457,0,0,1,.273-.755c.063-.12.121-.235.19-.342a1.085,1.085,0,0,1,.082-.146l.057-.089.1-.152a1.129,1.129,0,0,1-.323.184Zm0,0h-.038a.786.786,0,0,1-.387,0h-.063a.812.812,0,0,1-.114-.038.9.9,0,0,1-.26-.159l-.1-.089a2.371,2.371,0,0,1-.457-.723,2.329,2.329,0,0,0-.14.742,1.186,1.186,0,0,0,.577,1.11,2.156,2.156,0,0,1,.6.6h0a.044.044,0,0,0,0-.038h0a.186.186,0,0,1,0-.057.109.109,0,0,1,0-.044,3.457,3.457,0,0,1,.273-.755c.063-.12.121-.235.19-.342a1.085,1.085,0,0,1,.082-.146l.057-.089.1-.152a1.129,1.129,0,0,1-.323.184ZM439.9,341.2l-.825-1.814-.33.089.863,1.808,6.215,13.1c-.133.171-1.966,2.366-1.9,4.44a2.988,2.988,0,0,0,.159.945c.317.926.71,1.3,1.065,1.4v-.159a3.9,3.9,0,0,1,0-.634.333.333,0,0,1,0-.082V360.2h0a.139.139,0,0,0,0-.051h0v-.032a.157.157,0,0,1,0-.051h0a.353.353,0,0,1,0-.076h0a.984.984,0,0,1,.032-.146.139.139,0,0,1,0-.051v-.063l.076-.273.032-.076.038-.14c.032-.089.063-.184.1-.273a.748.748,0,0,1,.051-.127l.076-.178c.076-.178.165-.349.247-.52a5.236,5.236,0,0,1,.26-.463,11.064,11.064,0,0,1,.837-1.205Zm6.913,21.944h-.038a.786.786,0,0,1-.387,0h-.063a.812.812,0,0,1-.114-.038.9.9,0,0,1-.26-.159l-.1-.089a2.371,2.371,0,0,1-.457-.723,2.329,2.329,0,0,0-.14.742,1.186,1.186,0,0,0,.577,1.11,2.156,2.156,0,0,1,.6.6h0a.044.044,0,0,0,0-.038h0a.186.186,0,0,1,0-.057.109.109,0,0,1,0-.044,3.457,3.457,0,0,1,.273-.755l.133-.26.057-.082a1.085,1.085,0,0,1,.082-.146l.057-.089.1-.152a1.129,1.129,0,0,1-.323.184ZM439.9,341.2l-.825-1.814-.33.089.863,1.808,6.215,13.1c-.133.171-1.966,2.366-1.9,4.44a2.988,2.988,0,0,0,.159.945c.317.926.71,1.3,1.065,1.4v-.159a3.9,3.9,0,0,1,0-.634.333.333,0,0,1,0-.082V360.2h0a.139.139,0,0,0,0-.051h0a.157.157,0,0,1,0-.051h0a.353.353,0,0,1,0-.076h0a.984.984,0,0,1,.032-.146.139.139,0,0,1,0-.051v-.063l.076-.273.032-.076.038-.14c.032-.089.063-.184.1-.273a.752.752,0,0,1,.051-.127l.076-.178c.076-.178.165-.349.247-.52a5.231,5.231,0,0,1,.26-.463,11.064,11.064,0,0,1,.837-1.205Zm6.913,21.944h-.038a.786.786,0,0,1-.387,0h-.063a.812.812,0,0,1-.114-.038.9.9,0,0,1-.26-.159l-.1-.089a2.371,2.371,0,0,1-.457-.723,2.329,2.329,0,0,0-.14.742,1.186,1.186,0,0,0,.577,1.11,2.156,2.156,0,0,1,.6.6h0a.044.044,0,0,0,0-.038h0a.157.157,0,0,1,0-.051.151.151,0,0,1,0-.051,3.457,3.457,0,0,1,.273-.755l.133-.26.057-.082a1.094,1.094,0,0,1,.082-.146l.057-.089.1-.152a1.129,1.129,0,0,1-.323.184ZM439.9,341.2l-.825-1.814-.33.089.863,1.808,6.215,13.1c-.133.171-1.966,2.366-1.9,4.44a2.988,2.988,0,0,0,.159.945c.317.926.71,1.3,1.065,1.4v-.159a3.9,3.9,0,0,1,0-.634.333.333,0,0,1,0-.082V360.2h0a.139.139,0,0,0,0-.051h0a.157.157,0,0,1,0-.051h0a.353.353,0,0,1,0-.076h0a.984.984,0,0,1,.032-.146.139.139,0,0,1,0-.051v-.063l.076-.273.032-.076.038-.14c.032-.089.063-.184.1-.273a.752.752,0,0,1,.051-.127l.076-.178c.076-.178.165-.349.247-.52a5.231,5.231,0,0,1,.26-.463,11.064,11.064,0,0,1,.837-1.205Zm6.913,21.944h-.038a.786.786,0,0,1-.387,0h-.063a.812.812,0,0,1-.114-.038.9.9,0,0,1-.26-.159l-.1-.089a2.371,2.371,0,0,1-.457-.723,2.329,2.329,0,0,0-.14.742,1.186,1.186,0,0,0,.577,1.11,2.156,2.156,0,0,1,.6.6h0a.044.044,0,0,0,0-.038h0a.157.157,0,0,1,0-.051.151.151,0,0,1,0-.051,3.457,3.457,0,0,1,.273-.755l.133-.26.057-.082a1.094,1.094,0,0,1,.082-.146l.057-.089.1-.152a1.129,1.129,0,0,1-.323.184ZM439.9,341.2l-.825-1.814-.33.089.863,1.808,6.215,13.1c-.133.171-1.966,2.366-1.9,4.44a2.988,2.988,0,0,0,.159.945c.317.926.71,1.3,1.065,1.4v-.159a3.9,3.9,0,0,1,0-.634.333.333,0,0,1,0-.082V360.2h0a.139.139,0,0,0,0-.051h0a.157.157,0,0,1,0-.051h0a.353.353,0,0,1,0-.076h0a.984.984,0,0,1,.032-.146.139.139,0,0,1,0-.051v-.063l.076-.273.032-.076.038-.14c.032-.089.063-.184.1-.273a.752.752,0,0,1,.051-.127l.076-.178c.076-.178.165-.349.247-.52a5.231,5.231,0,0,1,.26-.463,11.064,11.064,0,0,1,.837-1.205Zm6.913,21.944h-.038a.786.786,0,0,1-.387,0h-.063a.812.812,0,0,1-.114-.038.9.9,0,0,1-.26-.159l-.1-.089a2.371,2.371,0,0,1-.457-.723,2.329,2.329,0,0,0-.14.742,1.186,1.186,0,0,0,.577,1.11,2.156,2.156,0,0,1,.6.6h0a.044.044,0,0,0,0-.038h0a.157.157,0,0,1,0-.051.151.151,0,0,1,0-.051,3.457,3.457,0,0,1,.273-.755l.133-.26.057-.082a1.094,1.094,0,0,1,.082-.146l.057-.089.1-.152a1.129,1.129,0,0,1-.323.184ZM439.9,341.2l-.825-1.814-.33.089.863,1.808,6.215,13.1c-.133.171-1.966,2.366-1.9,4.44a2.988,2.988,0,0,0,.159.945c.317.926.71,1.3,1.065,1.4v-.159a3.9,3.9,0,0,1,0-.634.333.333,0,0,1,0-.082V360.2h0a.139.139,0,0,0,0-.051h0a.157.157,0,0,1,0-.051h0a.353.353,0,0,1,0-.076h0a.984.984,0,0,1,.032-.146.139.139,0,0,1,0-.051v-.063l.076-.273.032-.076.038-.14c.032-.089.063-.184.1-.273a.752.752,0,0,1,.051-.127l.076-.178c.076-.178.165-.349.247-.52a5.231,5.231,0,0,1,.26-.463,11.064,11.064,0,0,1,.837-1.205Zm6.913,21.944h-.038a.786.786,0,0,1-.387,0h-.063a.812.812,0,0,1-.114-.038.9.9,0,0,1-.26-.159l-.1-.089a2.371,2.371,0,0,1-.457-.723,2.329,2.329,0,0,0-.14.742,1.186,1.186,0,0,0,.577,1.11,2.156,2.156,0,0,1,.6.6h0a.044.044,0,0,0,0-.038h0a.157.157,0,0,1,0-.051.151.151,0,0,1,0-.051,3.457,3.457,0,0,1,.273-.755l.133-.26.057-.082a1.094,1.094,0,0,1,.082-.146l.057-.089.1-.152a1.129,1.129,0,0,1-.323.184ZM439.9,341.2l-.825-1.814-.33.089.863,1.808,6.215,13.1c-.133.171-1.966,2.366-1.9,4.44a2.988,2.988,0,0,0,.159.945c.317.926.71,1.3,1.065,1.4v-.159a3.9,3.9,0,0,1,0-.634.333.333,0,0,1,0-.082V360.2h0a.139.139,0,0,0,0-.051h0a.157.157,0,0,1,0-.051h0a.353.353,0,0,1,0-.076h0a.984.984,0,0,1,.032-.146.139.139,0,0,1,0-.051v-.063l.076-.273.032-.076.038-.14c.032-.089.063-.184.1-.273a.752.752,0,0,1,.051-.127l.076-.178c.076-.178.165-.349.247-.52a5.231,5.231,0,0,1,.26-.463,11.064,11.064,0,0,1,.837-1.205Zm6.913,21.944h-.038a.786.786,0,0,1-.387,0h-.063a.812.812,0,0,1-.114-.038.9.9,0,0,1-.26-.159l-.1-.089a2.371,2.371,0,0,1-.457-.723,2.329,2.329,0,0,0-.14.742,1.186,1.186,0,0,0,.577,1.11,2.156,2.156,0,0,1,.6.6h0a.044.044,0,0,0,0-.038h0a.157.157,0,0,1,0-.051.151.151,0,0,1,0-.051,3.457,3.457,0,0,1,.273-.755l.133-.26.057-.082a1.094,1.094,0,0,1,.082-.146l.057-.089.1-.152a1.129,1.129,0,0,1-.323.184ZM439.9,341.2l-.825-1.814-.33.089.863,1.808,6.215,13.1c-.133.171-1.966,2.366-1.9,4.44a2.988,2.988,0,0,0,.159.945c.317.926.71,1.3,1.065,1.4v-.159a3.9,3.9,0,0,1,0-.634.333.333,0,0,1,0-.082V360.2h0a.139.139,0,0,0,0-.051h0a.157.157,0,0,1,0-.051h0a.353.353,0,0,1,0-.076h0a.984.984,0,0,1,.032-.146.139.139,0,0,1,0-.051v-.063l.076-.273.032-.076.038-.14c.032-.089.063-.184.1-.273a.752.752,0,0,1,.051-.127l.076-.178c.076-.178.165-.349.247-.52a5.231,5.231,0,0,1,.26-.463,11.064,11.064,0,0,1,.837-1.205Zm6.913,21.944h-.038a.786.786,0,0,1-.387,0h-.063a.812.812,0,0,1-.114-.038.9.9,0,0,1-.26-.159l-.1-.089a2.371,2.371,0,0,1-.457-.723,2.329,2.329,0,0,0-.14.742,1.186,1.186,0,0,0,.577,1.11,2.156,2.156,0,0,1,.6.6h0a.044.044,0,0,0,0-.038h0a.157.157,0,0,1,0-.051.151.151,0,0,1,0-.051,3.457,3.457,0,0,1,.273-.755l.133-.26.057-.082a1.094,1.094,0,0,1,.082-.146l.057-.089.1-.152a1.129,1.129,0,0,1-.323.184ZM439.9,341.2l-.825-1.814-.33.089.863,1.808,6.215,13.1c-.133.171-1.966,2.366-1.9,4.44a2.988,2.988,0,0,0,.159.945c.317.926.71,1.3,1.065,1.4v-.159a3.9,3.9,0,0,1,0-.634.333.333,0,0,1,0-.082V360.2h0a.139.139,0,0,0,0-.051h0a.157.157,0,0,1,0-.051h0a.353.353,0,0,1,0-.076h0a.984.984,0,0,1,.032-.146.139.139,0,0,1,0-.051v-.063l.076-.273.032-.076.038-.14c.032-.089.063-.184.1-.273a.752.752,0,0,1,.051-.127l.076-.178c.076-.178.165-.349.247-.52a5.231,5.231,0,0,1,.26-.463,11.064,11.064,0,0,1,.837-1.205Zm6.913,21.944h-.038a.786.786,0,0,1-.387,0h-.063a.812.812,0,0,1-.114-.038.9.9,0,0,1-.26-.159l-.1-.089a2.371,2.371,0,0,1-.457-.723,2.329,2.329,0,0,0-.14.742,1.186,1.186,0,0,0,.577,1.11,2.156,2.156,0,0,1,.6.6h0a.044.044,0,0,0,0-.038h0a.157.157,0,0,1,0-.051.151.151,0,0,1,0-.051,3.457,3.457,0,0,1,.273-.755l.133-.26.057-.082a1.094,1.094,0,0,1,.082-.146l.057-.089.1-.152a1.129,1.129,0,0,1-.323.184ZM439.9,341.2l-.825-1.814-.33.089.863,1.808,6.215,13.1c-.133.171-1.966,2.366-1.9,4.44a2.988,2.988,0,0,0,.159.945c.317.926.71,1.3,1.065,1.4v-.159a3.9,3.9,0,0,1,0-.634.333.333,0,0,1,0-.082V360.2h0a.139.139,0,0,0,0-.051h0v-.032a.157.157,0,0,1,0-.051h0a.353.353,0,0,1,0-.076h0a.984.984,0,0,1,.032-.146.139.139,0,0,1,0-.051v-.063l.076-.273.032-.076.038-.14c.032-.089.063-.184.1-.273a.748.748,0,0,1,.051-.127l.076-.178c.076-.178.165-.349.247-.52a5.236,5.236,0,0,1,.26-.463,11.064,11.064,0,0,1,.837-1.205Zm6.913,21.944h-.038a.786.786,0,0,1-.387,0h-.063a.408.408,0,0,1-.114-.038.9.9,0,0,1-.26-.159l-.1-.089a2.371,2.371,0,0,1-.457-.723,2.329,2.329,0,0,0-.14.742,1.186,1.186,0,0,0,.577,1.11,2.156,2.156,0,0,1,.6.6h0a.26.26,0,0,1,0-.1.15.15,0,0,1,0-.051,3.456,3.456,0,0,1,.273-.755l.133-.26.14-.228.057-.089.1-.152a1.13,1.13,0,0,1-.323.2Zm-1.4-3.939c.032-.089.063-.184.1-.273s.032-.089.051-.127a.882.882,0,0,1,.076-.178c.076-.178.165-.349.247-.52a5.219,5.219,0,0,1,.26-.463,11.065,11.065,0,0,1,.837-1.205l-7.059-15.221-.856-1.833-.33.089.863,1.808,6.215,13.1c-.133.171-1.966,2.366-1.9,4.44a2.988,2.988,0,0,0,.159.945c.317.926.71,1.3,1.065,1.4v-.159a3.9,3.9,0,0,1,0-.634.4.4,0,0,1,0-.082V360.2a1.374,1.374,0,0,1,0-.159h0l.038-.19V359.7l.076-.273A1.255,1.255,0,0,0,445.421,359.207Zm95.457-88.9a5.366,5.366,0,0,0-3.019-1.934,4.529,4.529,0,0,0-3.469.8c.285-.311,1.858-2.023,3.171-3.717,1.56-1.985,2.8-3.951,1.268-3.628-2.949.634-8.4,7.224-8.4,7.224l-1.116,1.991h0l-3.234,5.778-.342.634a17.4,17.4,0,0,0-3.241.4l-.368.488a9.066,9.066,0,0,0-1.649,3.127c-.152,1.268-5.448,3.609-7.611,4.865s-4.2,5.34-4.2,5.34-7.16.634-9.184,2.537c-1.414,1.319-4.871,1.332-6.831,1.218h0l-.5-.032c-.558-.038-.907-.082-.907-.082s-2.023-2.2-3.577-2.359a15.554,15.554,0,0,0-2.956,0s-.818-.273-2-.634l-.33-.1c-.279-.076-.577-.159-.894-.235l-.241-.063a3.806,3.806,0,0,0,.323-.4,3.751,3.751,0,0,0,.425-.78h0a3.171,3.171,0,0,0,.2-1.662,4.782,4.782,0,0,0-.666-1.674c-.2-.311-.4-.634-.59-.932a14.633,14.633,0,0,1-1.953-5.518h0a15.006,15.006,0,0,1,1.433-9.095,21.758,21.758,0,0,1,1.268-2.112l.717-1.008.45-.634.5-.7h0l.482-.679a17.8,17.8,0,0,0,1.833-3.2c.1-.222.178-.45.266-.679a.825.825,0,0,1,.07-.235c.025-.076.1-.311.139-.463s.051-.184.07-.279a3.543,3.543,0,0,0,.1-.431,1.56,1.56,0,0,1,.063-.3c.019-.1.051-.285.07-.425a1.11,1.11,0,0,1,.044-.311l.038-.425a2.381,2.381,0,0,0,0-.3h0V257.96a1.536,1.536,0,0,0-.044-.425c-.044-.146,0-.235-.044-.355a1.422,1.422,0,0,1-.051-.362l-.076-.368a1.511,1.511,0,0,0-.07-.336l-.1-.381a1.372,1.372,0,0,0-.082-.317c-.025-.1-.082-.26-.12-.381a2.892,2.892,0,0,0-.108-.3c-.044-.127-.082-.254-.14-.381s-.076-.184-.108-.273a11.639,11.639,0,0,0-1.332-2.353l-.926-1.154h0l-.247-.311A1.369,1.369,0,0,0,483,250.1c-.057-.108-.114-.216-.165-.33-.469-.926-.85-1.9-1.237-2.873-.108-.3-.235-.59-.355-.888,0-.063-.051-.127-.07-.19-.19-.457-.387-.9-.6-1.345-.159-.33-.33-.634-.5-.977-.057-.1-.114-.2-.165-.3l-.4-.634-.2-.317-.425-.634-.19-.273c-.2-.285-.406-.564-.634-.844h0c-.222-.292-.463-.577-.691-.863l-.19-.216-.552-.634-.216-.241-.577-.634-.2-.2c-.9-.932-1.852-1.833-2.822-2.714l-.5-.45h0l-1.763-1.567-.634-.526c-.184-.165-.387-.33-.577-.488a15.856,15.856,0,0,0-4.44-2.867,14.162,14.162,0,0,0-6.558-.672,22.319,22.319,0,0,0-10,3.495c-.241.152-.469.317-.7.488a18.55,18.55,0,0,0-3.558,3.317c-.178.209-.343.425-.507.634s-.279.387-.419.59a36.974,36.974,0,0,0-3.545,7.547c-3.444,9.126-6.938,18.551-7.427,28.21a2.531,2.531,0,0,1-.032.488q-.076,1.827,0,3.672h0a.481.481,0,0,0,0,.1,4.536,4.536,0,0,0,.038.717c.228,3.64.951,7.281,1.5,10.909l-.374.133c-4.44,1.687-5.264,5.074-5.264,5.074a.076.076,0,0,1,0,.032h0a5.413,5.413,0,0,1,.063.844,11.815,11.815,0,0,1-1.655,5.86l-.279.469h0a8.8,8.8,0,0,0-1.624,4.75,2.658,2.658,0,0,0,.216,1.053h0v.057a.758.758,0,0,0,0,.114v.057h0a12.684,12.684,0,0,1-2.251,4c-1.554,1.731-5.759,18.849-5.759,18.849a3.305,3.305,0,0,1,.279,1.37h0a2.683,2.683,0,0,1-.26,1.091h0a1.96,1.96,0,0,0,.228,1.757h0a6.6,6.6,0,0,0,1.015,1.37s.939-.311-.634,1.414l-.1.114h0a1.82,1.82,0,0,0,.12,2.277,6.164,6.164,0,0,0,1.389,1.383s12.754,21.976,15.4,24.335,5.289,8.48,5.289,8.48.266-.425.7-1.085c.2-.33.469-.717.742-1.135l.812,1.059h0l1.643,2.15-.634,1.237h0a28.9,28.9,0,0,0-1.693,3.805.945.945,0,0,0-.044.349,1.383,1.383,0,0,0,.419.9c-3.171,4.16-10.718,15.729-10.148,29.973h0v.482a38.206,38.206,0,0,0,3.691,14.346,30.681,30.681,0,0,1,.317,4.306h0a1.947,1.947,0,0,1-.165.85,4.547,4.547,0,0,0,.057,1.75h0c.419,3.127,1.82,9.228,1.82,9.228v3.215c.07,5.448.184,16.141-.044,18.456-.133,1.332-.266,2.4-.374,3.171-.152,1.091-.247,1.668-.247,1.668s-.057.4-.146,1.123c0,.26-.07.558-.108.9-.52,4.287-1.719,14.695-2.429,24.449,0,.425-.063.85-.089,1.268-.362,5.2-.558,10.148-.419,13.725v.539c.038.913.108,1.731.2,2.435.317,2.283.6,4.966.825,7.75a8.63,8.63,0,0,0,.082.9c.406,5.074.7,10.4.882,14.245v.748a.7.7,0,0,0,0,.165.237.237,0,0,0,0,.07c0,.222,0,.438,0,.634v1.947a9.91,9.91,0,0,0,.038,1.1,6.782,6.782,0,0,0,.038.805v.089h0a.108.108,0,0,1,0,.044v.076l.533,4.44,2.753,22.414.837,7.059,1.789,15.266,6.406-1.211.063.7.216,2.366h0l1.789-.171c0,.228-.032.457-.044.685-.3,5.3-.2,10.668-.2,10.668h.07c1.96.362,3.85.634,5.708.8v5.53H458.1l-.387-4.75-.051-.577h.057a62.584,62.584,0,0,0,11.828-.418l.355-.044.476.545,4.528,5.188a71.42,71.42,0,0,0,16.648-1.268c5.854-1.268,11.968-7.034,12.183-9.2h0c.076-.71-.495-1.034-1.9-.685-4.186,1.027-11.327,0-14.911-.634-.793-1.827-3.076-7.072-4.852-11.251l-.273-.634c2.619-1.979,4.63-4.5,4.9-5.822.171-.786-.279-1.142-1.586-.691a18.289,18.289,0,0,1-4.8.786h-.634a.8.8,0,0,0,.082-.12c1.268-1.75,1.49-4.154,1.345-6.412a21.826,21.826,0,0,0-.3-2.435h0v-.133a28.928,28.928,0,0,0-.761-3.12.644.644,0,0,0-.057-.2c-.121-.362-.2-.565-.2-.565s1.769-12.38,2.347-21.24a49.011,49.011,0,0,0,.1-6.894h0a.082.082,0,0,0,0-.038,3.8,3.8,0,0,0-.419-1.662,3.436,3.436,0,0,1-.526-1.268.108.108,0,0,0,0-.044c-.786-3.514.983-10.782,1.9-12.684a16.3,16.3,0,0,0,.767-1.9,30.518,30.518,0,0,0,1.731-7.706,19.575,19.575,0,0,1,.932-5.023c2.886-4.148,3.71-9.926,3.907-13.89a38.135,38.135,0,0,0,0-4.49,173.72,173.72,0,0,1,.964-19.807c.139-1.268.3-2.537.488-3.843.285-1.991.634-3.97,1.04-5.873,1.23-5.708.71-15.938-.254-25.673,0-.285-.057-.564-.082-.844a.24.24,0,0,1,0-.063c-.964-9.45-2.328-18.266-2.886-21.767h0c-.171-1.008-.266-1.579-.266-1.579a29.9,29.9,0,0,0,1.116-6.812h0a6.2,6.2,0,0,0-.577-3.051,2.8,2.8,0,0,1-.349-.932h0a.735.735,0,0,1,0-.12,15.222,15.222,0,0,1-.127-3.545h0a12.5,12.5,0,0,1,.1-1.268v-.127l.076-.761c.057-.444.1-.882.165-1.319a5.317,5.317,0,0,0,.539-.266,4.18,4.18,0,0,0,.844-.59c2.822-2.537,3.171-9.038,2.733-15.64a.24.24,0,0,1,0-.063v-.184a125.449,125.449,0,0,0-2.537-16.49h0a1.076,1.076,0,0,0,0-.14c-.1-.342-.159-.564-.159-.564s0-4.643-.273-9.107a.308.308,0,0,1,0-.076q0-.057,0-.114c-.235-3.678-.634-7.179-1.427-7.82a4.876,4.876,0,0,1-.9-2.8v-.044a.636.636,0,0,1,0-.108,63.146,63.146,0,0,1,0-9.3,18.392,18.392,0,0,0,2.442-8.01h0a13.01,13.01,0,0,0-.044-1.528.787.787,0,0,0-.038-.3,3.931,3.931,0,0,0-.07-.488,8.818,8.818,0,0,0-.431-1.706q.8-.14,1.693-.362l.5-.127h0c8.308-2.131,21.335-8.245,23.948-9.139,3.583-1.268,4.668-6.437,4.668-6.437s.33-.279.875-.786a43.127,43.127,0,0,0,7.186-8.733h0a25.839,25.839,0,0,0,2.4-5.01h0a18.615,18.615,0,0,0,.729-2.727,8.613,8.613,0,0,0,.127-.907h0v-.114l.6-.539h0c2.791-2.537,6.812-6.558,7.883-9.583C541.505,272,541.5,271.025,540.877,270.309ZM458.27,500.265c-.051,1.452-.152,2.8-.241,3.945h0c-.2,2.264-.406,3.755-.406,3.755a2.6,2.6,0,0,0-.45.488,6.23,6.23,0,0,0-.691,1.383l-.152-3.761S457.3,503.658,458.27,500.265ZM436.2,340c-.044-.146-.1-.285-.14-.431h0l.7-.14h0c.59-.114,1.161-.26,1.744-.425l.222.469.862,1.808,6.215,13.1c-.133.171-1.966,2.366-1.9,4.44a2.988,2.988,0,0,0,.159.945c.317.926.71,1.3,1.065,1.4h0a1.053,1.053,0,0,0,.913-.216,5.32,5.32,0,0,0-.634,1.18h0a2.328,2.328,0,0,0-.14.742,1.186,1.186,0,0,0,.577,1.11,2.156,2.156,0,0,1,.6.6h0a2.741,2.741,0,0,1,.419,1.23h0v.044h0a3.308,3.308,0,0,1,0,.349c0,.076,0,.14,0,.2l-.831-.247-1.833-.545a2.245,2.245,0,0,1,.989-.71l-5.657-12.431s-1.2-5.353-2.765-10.642Zm12.684,250.289-.12-.634-.032-.19.247-.044a1.888,1.888,0,0,0,0,.2,2.861,2.861,0,0,0-.114.672ZM439.9,341.2l-.825-1.814-.33.089.863,1.808,6.215,13.1c-.133.171-1.966,2.366-1.9,4.44a2.988,2.988,0,0,0,.159.945c.317.926.71,1.3,1.065,1.4v-.159a3.9,3.9,0,0,1,0-.634.333.333,0,0,1,0-.082V360.2h0a.139.139,0,0,0,0-.051h0a.057.057,0,0,1,0-.032.157.157,0,0,1,0-.051h0a.353.353,0,0,1,0-.076h0a.553.553,0,0,0,0-.1V359.8h0v-.063l.076-.273.032-.076.038-.14c.032-.089.063-.184.1-.273s.032-.089.051-.127a.886.886,0,0,1,.076-.178c.076-.178.165-.349.247-.52a5.235,5.235,0,0,1,.26-.463,11.062,11.062,0,0,1,.837-1.205Zm6.913,21.944h-.038a.786.786,0,0,1-.387,0h-.063a.812.812,0,0,1-.114-.038.9.9,0,0,1-.26-.159l-.1-.089a2.371,2.371,0,0,1-.457-.723,2.329,2.329,0,0,0-.14.742,1.186,1.186,0,0,0,.577,1.11,2.156,2.156,0,0,1,.6.6h0a.26.26,0,0,1,0-.1.15.15,0,0,1,0-.051,3.456,3.456,0,0,1,.273-.755l.133-.26.057-.082a1.079,1.079,0,0,1,.082-.146l.057-.089.1-.152a1.129,1.129,0,0,1-.323.2ZM439.9,341.2l-.825-1.814-.33.089.863,1.808,6.215,13.1c-.133.171-1.966,2.366-1.9,4.44a2.988,2.988,0,0,0,.159.945c.317.926.71,1.3,1.065,1.4v-.159a3.9,3.9,0,0,1,0-.634.333.333,0,0,1,0-.082V360.2h0a.139.139,0,0,0,0-.051h0a.157.157,0,0,1,0-.051h0a.353.353,0,0,1,0-.076h0a.984.984,0,0,1,.032-.146.139.139,0,0,1,0-.051v-.063l.076-.273.032-.076.038-.14c.032-.089.063-.184.1-.273a.752.752,0,0,1,.051-.127l.076-.178c.076-.178.165-.349.247-.52a5.231,5.231,0,0,1,.26-.463,11.064,11.064,0,0,1,.837-1.205Zm6.913,21.944h-.038a.786.786,0,0,1-.387,0h-.063a.812.812,0,0,1-.114-.038.9.9,0,0,1-.26-.159l-.1-.089a2.371,2.371,0,0,1-.457-.723,2.329,2.329,0,0,0-.14.742,1.186,1.186,0,0,0,.577,1.11,2.156,2.156,0,0,1,.6.6h0a.044.044,0,0,0,0-.038h0a.157.157,0,0,1,0-.051.151.151,0,0,1,0-.051,3.457,3.457,0,0,1,.273-.755l.133-.26.057-.082a1.094,1.094,0,0,1,.082-.146l.057-.089.1-.152a1.129,1.129,0,0,1-.323.184ZM439.9,341.2l-.825-1.814-.33.089.863,1.808,6.215,13.1c-.133.171-1.966,2.366-1.9,4.44a2.988,2.988,0,0,0,.159.945c.317.926.71,1.3,1.065,1.4v-.159a3.9,3.9,0,0,1,0-.634.333.333,0,0,1,0-.082V360.2h0a.139.139,0,0,0,0-.051h0a.157.157,0,0,1,0-.051h0a.353.353,0,0,1,0-.076h0a.984.984,0,0,1,.032-.146.139.139,0,0,1,0-.051v-.063l.076-.273.032-.076.038-.14c.032-.089.063-.184.1-.273a.752.752,0,0,1,.051-.127l.076-.178c.076-.178.165-.349.247-.52a5.231,5.231,0,0,1,.26-.463,11.064,11.064,0,0,1,.837-1.205Zm6.913,21.944h-.038a.786.786,0,0,1-.387,0h-.063a.812.812,0,0,1-.114-.038.9.9,0,0,1-.26-.159l-.1-.089a2.371,2.371,0,0,1-.457-.723,2.329,2.329,0,0,0-.14.742,1.186,1.186,0,0,0,.577,1.11,2.156,2.156,0,0,1,.6.6h0a.044.044,0,0,0,0-.038h0a.157.157,0,0,1,0-.051.151.151,0,0,1,0-.051,3.457,3.457,0,0,1,.273-.755l.133-.26.057-.082a1.094,1.094,0,0,1,.082-.146l.057-.089.1-.152a1.129,1.129,0,0,1-.323.184ZM439.9,341.2l-.825-1.814-.33.089.863,1.808,6.215,13.1c-.133.171-1.966,2.366-1.9,4.44a2.988,2.988,0,0,0,.159.945c.317.926.71,1.3,1.065,1.4v-.159a3.9,3.9,0,0,1,0-.634.333.333,0,0,1,0-.082V360.2h0a.139.139,0,0,0,0-.051h0a.157.157,0,0,1,0-.051h0a.353.353,0,0,1,0-.076h0a.984.984,0,0,1,.032-.146.139.139,0,0,1,0-.051v-.063l.076-.273.032-.076.038-.14c.032-.089.063-.184.1-.273a.752.752,0,0,1,.051-.127l.076-.178c.076-.178.165-.349.247-.52a5.231,5.231,0,0,1,.26-.463,11.064,11.064,0,0,1,.837-1.205Zm6.913,21.944h-.038a.786.786,0,0,1-.387,0h-.063a.812.812,0,0,1-.114-.038.9.9,0,0,1-.26-.159l-.1-.089a2.371,2.371,0,0,1-.457-.723,2.329,2.329,0,0,0-.14.742,1.186,1.186,0,0,0,.577,1.11,2.156,2.156,0,0,1,.6.6h0a.044.044,0,0,0,0-.038h0a.157.157,0,0,1,0-.051.151.151,0,0,1,0-.051,3.457,3.457,0,0,1,.273-.755l.133-.26.057-.082a1.094,1.094,0,0,1,.082-.146l.057-.089.1-.152a1.129,1.129,0,0,1-.323.184ZM439.9,341.2l-.825-1.814-.33.089.863,1.808,6.215,13.1c-.133.171-1.966,2.366-1.9,4.44a2.988,2.988,0,0,0,.159.945c.317.926.71,1.3,1.065,1.4v-.159a3.9,3.9,0,0,1,0-.634.333.333,0,0,1,0-.082V360.2h0a.139.139,0,0,0,0-.051h0a.157.157,0,0,1,0-.051h0a.353.353,0,0,1,0-.076h0a.984.984,0,0,1,.032-.146.139.139,0,0,1,0-.051v-.063l.076-.273.032-.076.038-.14c.032-.089.063-.184.1-.273a.752.752,0,0,1,.051-.127l.076-.178c.076-.178.165-.349.247-.52a5.231,5.231,0,0,1,.26-.463,11.064,11.064,0,0,1,.837-1.205Zm6.913,21.944h-.038a.786.786,0,0,1-.387,0h-.063a.812.812,0,0,1-.114-.038.9.9,0,0,1-.26-.159l-.1-.089a2.371,2.371,0,0,1-.457-.723,2.329,2.329,0,0,0-.14.742,1.186,1.186,0,0,0,.577,1.11,2.156,2.156,0,0,1,.6.6h0a.044.044,0,0,0,0-.038h0a.157.157,0,0,1,0-.051.151.151,0,0,1,0-.051,3.457,3.457,0,0,1,.273-.755l.133-.26.057-.082a1.094,1.094,0,0,1,.082-.146l.057-.089.1-.152a1.129,1.129,0,0,1-.323.184ZM439.9,341.2l-.825-1.814-.33.089.863,1.808,6.215,13.1c-.133.171-1.966,2.366-1.9,4.44a2.988,2.988,0,0,0,.159.945c.317.926.71,1.3,1.065,1.4v-.159a3.9,3.9,0,0,1,0-.634.333.333,0,0,1,0-.082V360.2h0a.139.139,0,0,0,0-.051h0a.157.157,0,0,1,0-.051h0a.353.353,0,0,1,0-.076h0a.984.984,0,0,1,.032-.146.139.139,0,0,1,0-.051v-.063l.076-.273.032-.076.038-.14c.032-.089.063-.184.1-.273a.752.752,0,0,1,.051-.127l.076-.178c.076-.178.165-.349.247-.52a5.231,5.231,0,0,1,.26-.463,11.064,11.064,0,0,1,.837-1.205Zm6.913,21.944h-.038a.786.786,0,0,1-.387,0h-.063a.812.812,0,0,1-.114-.038.9.9,0,0,1-.26-.159l-.1-.089a2.371,2.371,0,0,1-.457-.723,2.329,2.329,0,0,0-.14.742,1.186,1.186,0,0,0,.577,1.11,2.156,2.156,0,0,1,.6.6h0a.044.044,0,0,0,0-.038h0a.157.157,0,0,1,0-.051.151.151,0,0,1,0-.051,3.457,3.457,0,0,1,.273-.755l.133-.26.057-.082a1.094,1.094,0,0,1,.082-.146l.057-.089.1-.152a1.129,1.129,0,0,1-.323.184ZM439.9,341.2l-.825-1.814-.33.089.863,1.808,6.215,13.1c-.133.171-1.966,2.366-1.9,4.44a2.988,2.988,0,0,0,.159.945c.317.926.71,1.3,1.065,1.4v-.159a3.9,3.9,0,0,1,0-.634.333.333,0,0,1,0-.082V360.2h0a.139.139,0,0,0,0-.051h0a.157.157,0,0,1,0-.051h0a.353.353,0,0,1,0-.076h0a.984.984,0,0,1,.032-.146.139.139,0,0,1,0-.051v-.063l.076-.273.032-.076.038-.14c.032-.089.063-.184.1-.273a.752.752,0,0,1,.051-.127l.076-.178c.076-.178.165-.349.247-.52a5.231,5.231,0,0,1,.26-.463,11.064,11.064,0,0,1,.837-1.205Zm6.913,21.944h-.038a.786.786,0,0,1-.387,0h-.063a.812.812,0,0,1-.114-.038.9.9,0,0,1-.26-.159l-.1-.089a2.371,2.371,0,0,1-.457-.723,2.329,2.329,0,0,0-.14.742,1.186,1.186,0,0,0,.577,1.11,2.156,2.156,0,0,1,.6.6h0a.044.044,0,0,0,0-.038h0a.157.157,0,0,1,0-.051.151.151,0,0,1,0-.051,3.457,3.457,0,0,1,.273-.755l.133-.26.057-.082a1.094,1.094,0,0,1,.082-.146l.057-.089.1-.152a1.129,1.129,0,0,1-.323.184ZM439.9,341.2l-.825-1.814-.33.089.863,1.808,6.215,13.1c-.133.171-1.966,2.366-1.9,4.44a2.988,2.988,0,0,0,.159.945c.317.926.71,1.3,1.065,1.4v-.159a3.9,3.9,0,0,1,0-.634.333.333,0,0,1,0-.082V360.2h0a.139.139,0,0,0,0-.051h0a.157.157,0,0,1,0-.051h0a.353.353,0,0,1,0-.076h0a.984.984,0,0,1,.032-.146.139.139,0,0,1,0-.051v-.063l.076-.273.032-.076.038-.14c.032-.089.063-.184.1-.273a.752.752,0,0,1,.051-.127l.076-.178c.076-.178.165-.349.247-.52a5.231,5.231,0,0,1,.26-.463,11.064,11.064,0,0,1,.837-1.205Zm6.913,21.944h-.038a.786.786,0,0,1-.387,0h-.063a.812.812,0,0,1-.114-.038.9.9,0,0,1-.26-.159l-.1-.089a2.371,2.371,0,0,1-.457-.723,2.329,2.329,0,0,0-.14.742,1.186,1.186,0,0,0,.577,1.11,2.156,2.156,0,0,1,.6.6h0a.044.044,0,0,0,0-.038h0a.157.157,0,0,1,0-.051.151.151,0,0,1,0-.051,3.457,3.457,0,0,1,.273-.755l.133-.26.057-.082a1.094,1.094,0,0,1,.082-.146l.057-.089.1-.152a1.129,1.129,0,0,1-.323.184ZM439.9,341.2l-.825-1.814-.33.089.863,1.808,6.215,13.1c-.133.171-1.966,2.366-1.9,4.44a2.988,2.988,0,0,0,.159.945c.317.926.71,1.3,1.065,1.4v-.159a3.9,3.9,0,0,1,0-.634.333.333,0,0,1,0-.082V360.2h0a.139.139,0,0,0,0-.051h0a.157.157,0,0,1,0-.051h0a.353.353,0,0,1,0-.076h0a.984.984,0,0,1,.032-.146.139.139,0,0,1,0-.051v-.063l.076-.273.032-.076.038-.14c.032-.089.063-.184.1-.273a.752.752,0,0,1,.051-.127l.076-.178c.076-.178.165-.349.247-.52a5.231,5.231,0,0,1,.26-.463,11.064,11.064,0,0,1,.837-1.205Zm6.913,21.944h-.038a.786.786,0,0,1-.387,0h-.063a.812.812,0,0,1-.114-.038.9.9,0,0,1-.26-.159l-.1-.089a2.371,2.371,0,0,1-.457-.723,2.329,2.329,0,0,0-.14.742,1.186,1.186,0,0,0,.577,1.11,2.156,2.156,0,0,1,.6.6h0a.044.044,0,0,0,0-.038h0a.186.186,0,0,1,0-.057.109.109,0,0,1,0-.044,3.457,3.457,0,0,1,.273-.755c.063-.12.121-.235.19-.342a1.085,1.085,0,0,1,.082-.146l.057-.089.1-.152a1.129,1.129,0,0,1-.323.184ZM439.9,341.2l-.825-1.814-.33.089.863,1.808,6.215,13.1c-.133.171-1.966,2.366-1.9,4.44a2.988,2.988,0,0,0,.159.945c.317.926.71,1.3,1.065,1.4v-.159a3.9,3.9,0,0,1,0-.634.333.333,0,0,1,0-.082V360.2h0a.139.139,0,0,0,0-.051h0v-.032a.157.157,0,0,1,0-.051h0a.353.353,0,0,1,0-.076h0a.984.984,0,0,1,.032-.146.139.139,0,0,1,0-.051v-.063l.076-.273.032-.076.038-.14c.032-.089.063-.184.1-.273a.748.748,0,0,1,.051-.127l.076-.178c.076-.178.165-.349.247-.52a5.236,5.236,0,0,1,.26-.463,11.064,11.064,0,0,1,.837-1.205Zm6.913,21.944h-.038a.786.786,0,0,1-.387,0h-.063a.812.812,0,0,1-.114-.038.9.9,0,0,1-.26-.159l-.1-.089a2.371,2.371,0,0,1-.457-.723,2.329,2.329,0,0,0-.14.742,1.186,1.186,0,0,0,.577,1.11,2.156,2.156,0,0,1,.6.6h0a.044.044,0,0,0,0-.038h0a.186.186,0,0,1,0-.057.109.109,0,0,1,0-.044,3.457,3.457,0,0,1,.273-.755c.063-.12.121-.235.19-.342a1.085,1.085,0,0,1,.082-.146l.057-.089.1-.152a1.129,1.129,0,0,1-.323.184Z" transform="translate(-159.443 -103.502)"/>
    <path id="Path_97" data-name="Path 97" class="cls-29" d="M488.642,783.5s9.513,1.167,14.1-.419-1.421,6.818-7.655,8.809a59.544,59.544,0,0,1-13.534,2.3L474.22,787.3l-7.782.6L467.8,795.5l-2.416.228-.939-9.983Z" transform="translate(-176.915 -306.36)"/>
    <path id="Path_98" data-name="Path 98" class="cls-26" d="M488.642,783.5s9.513,1.167,14.1-.419-1.421,6.818-7.655,8.809a59.544,59.544,0,0,1-13.534,2.3L474.22,787.3l-7.782.6L467.8,795.5l-2.416.228-.939-9.983Z" transform="translate(-176.915 -306.36)"/>
    <path id="Path_99" data-name="Path 99" class="cls-29" d="M507.121,811.34s11.384,2.492,17.124,1.091-2.492,8.112-10.293,9.824a73.441,73.441,0,0,1-16.693,1.268l-8.074-9.228-9.513-.159.78,9.418H477.49V811.34Z" transform="translate(-181.689 -316.767)"/>
    <path id="Path_100" data-name="Path 100" class="cls-26" d="M507.121,811.34s11.384,2.492,17.124,1.091-2.492,8.112-10.293,9.824a73.441,73.441,0,0,1-16.693,1.268l-8.074-9.228-9.513-.159.78,9.418H477.49V811.34Z" transform="translate(-181.689 -316.767)"/>
    <path id="Path_101" data-name="Path 101" class="cls-23" d="M451.156,469.75s-19.5,21.678-7.8,46.165c0,0,.634,4.37.159,5.15s1.871,10.915,1.871,10.915.317,18.392,0,21.526-.634,4.833-.634,4.833-4.357,33.975-2.956,44.123,2.03,28.229,2.03,28.229l5.771,48.664,29.948-5.613-13.572-66.758-.469-11.854s5.619-14.5,3.12-21.836.634-100.759.634-100.759Z" transform="translate(-167.836 -191.821)"/>
    <path id="Path_102" data-name="Path 102" class="cls-21" d="M451.156,469.75s-19.5,21.678-7.8,46.165c0,0,.634,4.37.159,5.15s1.871,10.915,1.871,10.915.317,18.392,0,21.526-.634,4.833-.634,4.833-4.357,33.975-2.956,44.123,2.03,28.229,2.03,28.229l5.771,48.664,29.948-5.613-13.572-66.758-.469-11.854s5.619-14.5,3.12-21.836.634-100.759.634-100.759Z" transform="translate(-167.836 -191.821)"/>
    <path id="Path_103" data-name="Path 103" class="cls-23" d="M469.551,575.031c3.431,6.552,1.268,22.458,1.268,22.458-4.522,3.9-2.03,37.9-2.03,37.9s-3.12,33.538-5.144,37.419-1.719,19.965-1.719,19.965c22.927,4.211,37.9-4.833,37.9-4.833s-7.332-16.693-7.484-17.466c-.089-.438-1.059.748-1.351,1.091.152-.209.552-.755,1.351-1.9,3.12-4.37,0-12.792,0-12.792s3.9-27.138,2.03-29.637.311-11.7,1.4-13.877a30.735,30.735,0,0,0,2.492-9.513,19.2,19.2,0,0,1,.939-4.985c4.833-6.869,3.9-18.253,3.9-18.253s-.311-16.376,2.492-29.32-3.5-49.6-3.5-49.6,2.1-7.173.539-9.824c-.7-1.192-.634-4-.3-6.723.381-3.33,1.085-6.532,1.085-6.532l-42.55-7.554c-.894,1.49-1.712,2.936-2.467,4.325-14.073,26-4.585,35.669-4.585,35.669l9.031,27.836S466.107,568.486,469.551,575.031Z" transform="translate(-171.885 -192.297)"/>
    <path id="Path_104" data-name="Path 104" class="cls-30" d="M586.92,303.706,593,308.868s1.192-.951,2.791-2.378c3.805-3.437,9.97-9.659,7.661-12.3-3.171-3.6-6.342-1.268-6.539-1.1.342-.362,7.4-7.928,4.509-7.319S593,292.949,593,292.949l-4.37,7.719Z" transform="translate(-221.716 -124.513)"/>
    <path id="Path_105" data-name="Path 105" class="cls-30" d="M444.6,415.35l7.173,2.182-5.454,9.513-6.241-8.112Z" transform="translate(-160.971 -151.926)"/>
    <circle id="Ellipse_6" data-name="Ellipse 6" class="cls-30" cx="20.435" cy="20.435" r="20.435" transform="translate(280.041 133.18)"/>
    <path id="Path_106" data-name="Path 106" class="cls-30" d="M480.679,282.159s-18.564,29.46-.939,32-23.707,20.435-23.707,20.435l-15.443-15.6s16.065-27.766,13.572-38.37S480.679,282.159,480.679,282.159Z" transform="translate(-168.191 -121.054)"/>
    <path id="Path_107" data-name="Path 107" class="cls-26" d="M462.82,475.445a96.592,96.592,0,0,0,12.577,2.911s22.984,10.2,31.356,6.85c.38-3.33,1.085-6.532,1.085-6.532l-42.55-7.554C464.393,472.61,463.568,474.056,462.82,475.445Z" transform="translate(-176.323 -192.322)"/>
    <path id="Path_108" data-name="Path 108" class="cls-27" d="M429.4,345.44l4.154,8.594,4.693,9.678.634,1.383,5.562,12.05,7.072,15.272s-2.5,2.962-1.719,5.3c.729,2.188,1.871,1.237,2.017,1.1-.133.184-1.643,2.213-.3,3.108s.932,2.962.932,2.962-5.771,9.513-6.862,12.944,17.473,6.4,17.473,6.4,26.358,11.7,32.91,5.924,0-32.91,0-32.91,0-15.6-1.719-17-.9-12.215-.9-12.215c4.522-8.245,1.4-12.944,1.4-12.944l1.268-21.208s-2.03-2.188-3.59-2.34a15.6,15.6,0,0,0-2.962,0s-.824-.279-2.01-.634c-2.5-.71-6.647-1.693-8.131-.951-2.182,1.091-16.217-1.719-16.217-1.719a171.7,171.7,0,0,0-18.253-1.712,18.062,18.062,0,0,0-6.19.672c-5.074,1.567-5.974,5.251-5.974,5.251s.634,3.12-1.871,7.173S429.4,345.44,429.4,345.44Z" transform="translate(-164.011 -139.42)"/>
    <path id="Path_109" data-name="Path 109" class="cls-26" d="M586.92,312.309,593,317.471s1.192-.951,2.791-2.378c.482-5.264-4-5.962-7.16-5.822Z" transform="translate(-221.716 -133.116)"/>
    <path id="Path_110" data-name="Path 110" class="cls-27" d="M528.23,327.8l2.651.159s6.234.774,8.245-1.1,9.2-2.492,9.2-2.492,2.029-4.059,4.211-5.3,7.49-3.59,7.611-4.839,2.03-3.583,2.03-3.583,11.7-2.81,9.983,6.393-11.181,17.149-11.181,17.149-1.091,5.15-4.681,6.4-26.828,12.164-30.57,9.355S528.23,327.8,528.23,327.8Z" transform="translate(-198.897 -133.477)"/>
    <path id="Path_111" data-name="Path 111" class="cls-26" d="M430.8,339.681c2.492-4.053,1.871-7.173,1.871-7.173s.9-3.685,5.974-5.251a15.429,15.429,0,0,1,3.038-.6c-5,1.586-5.892,5.226-5.892,5.226s.634,3.12-1.871,7.173-1.408,5.771-1.408,5.771l4.161,8.594,4.687,9.672.672,1.389L447.6,376.5l7.072,15.272s-2.5,2.968-1.719,5.308c.729,2.188,1.871,1.23,2.017,1.1-.133.178-1.643,2.213-.3,3.108s.932,2.962.932,2.962-5.771,9.513-6.862,12.944,17.473,6.393,17.473,6.393,18.3,8.124,28.2,7.49c-8.41,3.3-31.318-6.862-31.318-6.862s-18.564-2.968-17.473-6.4,6.862-12.938,6.862-12.938.469-2.03-.932-2.962.165-2.924.3-3.108c-.146.133-1.268,1.085-2.017-1.1-.78-2.34,1.719-5.3,1.719-5.3l-7.072-15.278-5.562-12.05-.634-1.383-4.693-9.678-4.154-8.594S428.3,343.74,430.8,339.681Z" transform="translate(-164.018 -139.482)"/>
    <path id="Path_112" data-name="Path 112" class="cls-27" d="M427.63,352.68l-2.8,2.34a12.881,12.881,0,0,1-2.34,4.211c-1.56,1.719-5.771,18.716-5.771,18.716a3.032,3.032,0,0,1,0,2.5c-.634,1.268,1.268,3.12,1.268,3.12s.932-.311-.634,1.4,1.408,3.755,1.408,3.755,12.786,21.824,15.437,24.164,5.3,8.422,5.3,8.422,5.556-8.714,6.862-8.879L440.9,400.113s-3.748-17.162-6.552-20.3,1.4-13.889,1.4-13.889Z" transform="translate(-159.411 -149)"/>
    <path id="Path_113" data-name="Path 113" class="cls-26" d="M429.974,374.937c2.347,2.816,6.463,3.412,10.1,3,.533-.063,1.072-.146,1.6-.247a23.274,23.274,0,0,0,2.366-.552,24.659,24.659,0,0,0,7.75-3.805,5.328,5.328,0,0,1,1.738-1c1.459-.368,2.9.717,3.7,1.985s1.167,2.765,1.979,4.021c1.6,2.492,4.693,3.691,7.661,3.761a27.309,27.309,0,0,0,8.676-1.7c-2.29-2.816-4.636-5.746-5.568-9.253a21.912,21.912,0,0,1-.438-6.976c.672-11.035,4.5-22.667,13.5-29.1,1.56-1.11,3.444-2.423,3.964-4.11-2.5-.71-6.647-1.693-8.131-.951-2.182,1.091-16.217-1.719-16.217-1.719a171.681,171.681,0,0,0-18.253-1.712,18.061,18.061,0,0,0-6.19.672c.767,4.687,1.433,9.348.514,13.953a31.248,31.248,0,0,1-3.089,8.213c-.8,1.554-1.662,3.082-2.537,4.617-2.372,4.268-4.636,8.549-5.074,13.319C427.843,370.048,428.275,372.9,429.974,374.937Z" transform="translate(-163.582 -139.438)"/>
    <path id="Path_114" data-name="Path 114" class="cls-26" d="M476.067,437.109a11.018,11.018,0,0,0-3.653-.317,6.723,6.723,0,0,0-2.733,1.592l8.017.044c2.061,0,5.169.127,6.748-1.332C483,435.663,478.128,437.375,476.067,437.109Z" transform="translate(-178.832 -179.665)"/>
    <path id="Path_115" data-name="Path 115" class="cls-20" d="M488.265,256.549a12.107,12.107,0,0,1,1.389,11.746c-1.268,3.013-3.761,5.372-5.277,8.277a14.917,14.917,0,0,0,.507,14.448,7.294,7.294,0,0,1,1.268,2.594c.362,2.378-2.1,4.084-4.059,5.486-9.006,6.418-12.83,18.056-13.5,29.1a21.881,21.881,0,0,0,.431,6.976c.932,3.507,3.285,6.437,5.575,9.253a27.313,27.313,0,0,1-8.683,1.7c-2.974-.07-6.057-1.268-7.661-3.761-.812-1.268-1.192-2.753-1.979-4.021s-2.239-2.347-3.685-1.985a5.149,5.149,0,0,0-1.744,1,24.678,24.678,0,0,1-11.72,4.611c-3.64.419-7.757-.184-10.1-3a10.344,10.344,0,0,1-1.9-7.541c.812-9.444,8.809-16.87,10.661-26.168,1.5-7.535-1.218-15.221-1.712-22.87-.742-11.334,3.374-22.363,7.427-32.98a35,35,0,0,1,3.552-7.5c3.393-4.972,9.26-7.953,15.221-8.549a14.251,14.251,0,0,1,6.577.634,19.963,19.963,0,0,1,5.638,3.862c3.869,3.355,7.845,6.85,10.071,11.467.907,1.9,1.5,3.913,2.537,5.746Z" transform="translate(-163.245 -105.306)"/>
    <g id="Group_2" data-name="Group 2" class="cls-31" transform="translate(264.997 136.478)">
      <path id="Path_116" data-name="Path 116" d="M514.431,257.343c-1.015-1.833-1.6-3.862-2.537-5.746a23.027,23.027,0,0,0-3.235-4.877,27.382,27.382,0,0,1,5.708,7.541c.882,1.827,1.471,3.805,2.429,5.587l-1.23-1.04a10.375,10.375,0,0,1,.862,1.351,13.952,13.952,0,0,1-2-2.816Z" transform="translate(-458.087 -246.72)"/>
      <path id="Path_117" data-name="Path 117" d="M437.292,397.148a24.576,24.576,0,0,0,11.72-4.6,5.278,5.278,0,0,1,1.744-1c1.452-.368,2.9.717,3.691,1.985.165.266.311.552.45.837a2.537,2.537,0,0,0-1.643-.159,5.149,5.149,0,0,0-1.744,1,24.678,24.678,0,0,1-11.72,4.611c-3.64.419-7.757-.184-10.1-3a7.862,7.862,0,0,1-.774-1.161A13.008,13.008,0,0,0,437.292,397.148Z" transform="translate(-428.92 -299.668)"/>
      <path id="Path_118" data-name="Path 118" d="M481.217,356.117a27.344,27.344,0,0,0,8.676-1.7c-2.29-2.816-4.636-5.746-5.568-9.253a21.888,21.888,0,0,1-.438-6.976c.672-11.042,4.5-22.68,13.509-29.1,1.96-1.4,4.44-3.108,4.059-5.492a7.427,7.427,0,0,0-1.268-2.588,14.917,14.917,0,0,1-.514-14.448c1.522-2.9,4-5.264,5.283-8.283a12.152,12.152,0,0,0-.533-10.389,14.544,14.544,0,0,0,1.37,1.268,13.942,13.942,0,0,0,1.129,1.383,12.145,12.145,0,0,1,.526,10.395c-1.268,3.013-3.761,5.372-5.277,8.277a14.917,14.917,0,0,0,.507,14.448,7.293,7.293,0,0,1,1.268,2.594c.362,2.378-2.1,4.084-4.059,5.486-9.006,6.418-12.83,18.056-13.5,29.1a21.88,21.88,0,0,0,.431,6.976c.932,3.507,3.285,6.437,5.575,9.253a27.312,27.312,0,0,1-8.683,1.7c-2.974-.07-6.057-1.268-7.661-3.761-.108-.165-.2-.336-.3-.507A10.636,10.636,0,0,0,481.217,356.117Z" transform="translate(-446.049 -254.464)"/>
    </g>
    <path id="Path_119" data-name="Path 119" class="cls-32" d="M303.018,179.57v13.319H245.19q2.645-3.666,5.4-7.23c.254-.33.507-.634.774-.983l2.708-3.406h0l.374-.463h0l.983-1.2Z" transform="translate(-96.719 -85.68)"/>
    <rect id="Rectangle_51" data-name="Rectangle 51" class="cls-32" width="60.765" height="13.306" transform="translate(265.187 93.89)"/>
    <rect id="Rectangle_52" data-name="Rectangle 52" class="cls-32" width="60.765" height="13.306" transform="translate(404.748 93.89)"/>
    <rect id="Rectangle_53" data-name="Rectangle 53" class="cls-32" width="60.765" height="13.306" transform="translate(522.783 93.89)"/>
  </g>
</svg>
