<svg id="Layer_1" data-name="Layer 1" xmlns="http://www.w3.org/2000/svg" viewBox="0 0 763.23 730.32"><defs><style>.cls-1{fill:#ffb8b8;}.cls-2{fill:#cfcce0;}.cls-3{fill:#c64242;}.cls-4{fill:#2f2e41;}.cls-5{fill:#e54848;}.cls-6{fill:#3f3d56;}</style></defs><title>Asset 1</title><g id="b3347a10-18dd-4c71-91c3-38a98340ba03"><path class="cls-1" d="M542.21,342.47s-40.76,32-20.39,39.35,33.49-26.21,33.49-26.21Z" transform="translate(-14.81 -25.74)"/><path class="cls-2" d="M543.66,330.83l-8.74,14.55s14.56,0,17.47,21.84l11.66-14.56Z" transform="translate(-14.81 -25.74)"/><polygon class="cls-1" points="722.47 637 723.93 680.67 706.46 690.87 699.18 686.5 700.64 637 722.47 637"/><path class="cls-1" d="M633.92,651.1l2.91,46.58-40.77,17.47L599,690.4s11.64-18.92,8.74-39.3Z" transform="translate(-14.81 -25.74)"/><path class="cls-3" d="M696.52,300.25s23.29,61.15,27.61,99,11.64,138.3,11.64,138.3l14.66,129.54-40.76,5.83-17.52-131-39.3-129.56-8.74,129.56-7.28,117.92L599,661.29,596.06,539l-16-155.77L588.79,309Z" transform="translate(-14.81 -25.74)"/><path class="cls-4" d="M718.35,709.34s2.39-24.45,20.13-10.77l3.17-2.33,14.56,32S773.68,753,743.1,755.88s-27.61-27.62-27.61-27.62l-2.91-13.1L714,706.6Z" transform="translate(-14.81 -25.74)"/><path class="cls-4" d="M633.92,680.21a23.11,23.11,0,0,1,11.64,20.39c0,14.55-1.45,16-1.45,16l-21.83,5.82S607.72,721,599,729.71s-52.37,14.56-52.37,2.92S583,702.05,583,702.05s10.81-18.26,18.51-16.4,10.61,4.76,10.61,6.21-4.36,11.64-4.36,11.64S632.46,697.68,633.92,680.21Z" transform="translate(-14.81 -25.74)"/><circle class="cls-1" cx="616.2" cy="59.06" r="36.4"/><path class="cls-1" d="M657.94,94.29l16,36.4-43.68,62.59s-2.91-68.42-11.65-80.06S657.94,94.29,657.94,94.29Z" transform="translate(-14.81 -25.74)"/><polygon class="cls-2" points="622.75 144.22 630.03 125.29 635.85 126.75 643.13 120.93 653.32 88.9 667.88 99.09 686.81 289.79 568.89 292.71 584.9 160.24 599.46 122.38 609.96 108.49 616.93 129.66 622.75 144.22"/><path class="cls-3" d="M671,251.49,675.5,119.8s8.64.66,11.56,5,51,13.1,51,13.1l-8.78,135.35s36.39,107.77,23.3,113.6-36.42,4.36-36.42,4.36Z" transform="translate(-14.81 -25.74)"/><path class="cls-3" d="M600.44,234.74,615.88,146l-34.37,23.24,8.74,64.06L583,277s-27.65,120.84-18.91,125.2,18.91,0,18.91,0l17.47-122.29Z" transform="translate(-14.81 -25.74)"/><path class="cls-3" d="M591.7,166.32l-10.19,2.91-4.36,58.24-7.29,50.94L534.92,341s17.47-11.64,24.76,21.84l38.47-67Z" transform="translate(-14.81 -25.74)"/><path class="cls-1" d="M705.25,330.83s-40.76,32-20.37,39.3,33.47-26.2,33.47-26.2Z" transform="translate(-14.81 -25.74)"/><polygon class="cls-2" points="715.2 321.1 702.09 337.11 684.63 306.54 691.9 293.44 715.2 321.1"/><path class="cls-3" d="M727.09,143l11.64-5.82s8.74,11.64,10.19,21.83,8.74,23.3,8.74,30.57S778,265.31,778,265.31l-46.58,94.61s-10.2-34.94-32-37.85l36.39-50.95-20.37-36.4Z" transform="translate(-14.81 -25.74)"/><path class="cls-4" d="M661.47,50.12l6.87-2.75S654,31.58,634.06,33l5.62-6.18S626,21.27,613.47,35.7c-6.56,7.62-14.15,16.49-18.88,26.53h-7.35L590.31,69l-10.74,6.76,11-1.22a37.56,37.56,0,0,0-.33,11.2,14.48,14.48,0,0,0,5.3,9.52h0s8.51-17.61,8.51-20.36v6.84s6.87-6.19,6.87-10.31l3.74,4.79,1.9-7.55,23.06,7.55L635.89,70l14.36,2.07-5.62-7.56S660.82,73.46,661.47,81s5.37,14.72,5.37,14.72S679.57,60.42,661.47,50.12Z" transform="translate(-14.81 -25.74)"/><ellipse class="cls-1" cx="646.05" cy="53.23" rx="4.07" ry="5.09"/><polygon class="cls-5" points="125.67 300.04 0 300.04 0 264.83 65.6 264.83 125.67 300.04"/><path class="cls-3" d="M14.81,321V423.84H422.55V321Zm159,85.62H41.37v-14.5H173.83ZM396,379.64H41.37v-14.5H396Zm0-26.93H41.37v-14.5H396Z" transform="translate(-14.81 -25.74)"/><polygon class="cls-5" points="125.67 133.63 0 133.63 0 98.42 65.6 98.42 125.67 133.63"/><path class="cls-3" d="M14.81,156.61V259.5H422.55V156.61Zm159,85.62H41.37v-14.5H173.83Zm76.58-26.92h-209v-14.5h209ZM396,188.38H41.37V173.87H396Z" transform="translate(-14.81 -25.74)"/><polygon class="cls-5" points="125.67 463 0 463 0 427.78 65.6 427.78 125.67 463"/><path class="cls-3" d="M14.81,481.84V584.72H422.55V481.84Zm235.6,85.64h-209V553h209Zm0-26.93h-209V526h209ZM396,513.62H41.37V499.1H396Z" transform="translate(-14.81 -25.74)"/><polygon class="cls-6" points="523.4 210.97 465.4 210.97 465.4 152.97 504.76 152.97 504.76 154.35 466.78 154.35 466.78 209.59 522.02 209.59 522.02 181.97 523.4 181.97 523.4 210.97"/><path class="cls-5" d="M508.91,221.58c-1.34-4-18.16-17.41-7.85-19.67l8.49,11.26,38.83-38.83,3.91,3.9Z" transform="translate(-14.81 -25.74)"/><polygon class="cls-6" points="523.4 375.31 465.4 375.31 465.4 317.3 504.76 317.3 504.76 318.69 466.78 318.69 466.78 373.93 522.02 373.93 522.02 346.31 523.4 346.31 523.4 375.31"/><path class="cls-5" d="M508.91,385.92c-1.34-4-18.16-17.41-7.85-19.68l8.49,11.27,38.83-38.83,3.91,3.9Z" transform="translate(-14.81 -25.74)"/><polygon class="cls-6" points="523.4 538.96 465.4 538.96 465.4 480.95 504.76 480.95 504.76 482.33 466.78 482.33 466.78 537.58 522.02 537.58 522.02 509.95 523.4 509.95 523.4 538.96"/><path class="cls-5" d="M508.91,549.57c-1.34-4-18.16-17.42-7.85-19.67l8.49,11.26,38.83-38.83,3.91,3.9Z" transform="translate(-14.81 -25.74)"/></g></svg>